<svg xmlns="http://www.w3.org/2000/svg" viewBox="0 0 1200 630" width="1200" height="630" font-family="'Apple SD Gothic Neo','Malgun Gothic','Noto Sans KR','Segoe UI',sans-serif">
  <defs>
    <linearGradient id="bg" x1="0" y1="0" x2="1" y2="1"><stop offset="0" stop-color="#062017"/><stop offset="0.5" stop-color="#0a2233"/><stop offset="1" stop-color="#101a3a"/></linearGradient>
    <radialGradient id="glow" cx="82%" cy="10%" r="72%"><stop offset="0" stop-color="#10b981" stop-opacity="0.45"/><stop offset="1" stop-color="#10b981" stop-opacity="0"/></radialGradient>
    <pattern id="dots" width="34" height="34" patternUnits="userSpaceOnUse"><circle cx="2" cy="2" r="1.6" fill="#fff" opacity="0.06"/></pattern>
    <linearGradient id="ac" x1="0" y1="0" x2="1" y2="0"><stop offset="0" stop-color="#6ee7b7"/><stop offset="1" stop-color="#67e8f9"/></linearGradient>
  </defs>
  <rect width="1200" height="630" fill="url(#bg)"/><rect width="1200" height="630" fill="url(#dots)"/><rect width="1200" height="630" fill="url(#glow)"/>
  <g transform="translate(80,90)"><rect width="252" height="48" rx="24" fill="#10b981" opacity="0.2"/><text x="126" y="32" text-anchor="middle" font-size="23" font-weight="700" fill="#6ee7b7">⚡ Workplace Automation · 심화</text></g>
  <text x="80" y="262" font-size="58" font-weight="800" fill="#fff">파이썬으로 엑셀 업무</text>
  <text x="80" y="338" font-size="58" font-weight="800" fill="url(#ac)">자동화하기</text>
  <text x="80" y="404" font-size="30" font-weight="500" fill="#aab0d6">취합·정산·리포트 실전 패턴</text>
  <g transform="translate(80,456)" font-size="22" font-weight="700">
    <g><rect width="150" height="52" rx="12" fill="#fff" opacity="0.08"/><text x="75" y="34" text-anchor="middle" fill="#e8eaff">pandas</text></g>
    <g transform="translate(166,0)"><rect width="150" height="52" rx="12" fill="#fff" opacity="0.08"/><text x="75" y="34" text-anchor="middle" fill="#e8eaff">openpyxl</text></g>
    <g transform="translate(332,0)"><rect width="150" height="52" rx="12" fill="#fff" opacity="0.08"/><text x="75" y="34" text-anchor="middle" fill="#e8eaff">예약 실행</text></g>
  </g>
  <text x="1120" y="560" text-anchor="end" font-size="30" font-weight="800" fill="#fff" opacity="0.85">NEXT X</text>
</svg>
