<svg xmlns="http://www.w3.org/2000/svg" viewBox="0 0 1200 630" width="1200" height="630" font-family="'Apple SD Gothic Neo','Malgun Gothic','Noto Sans KR','Segoe UI',sans-serif">
  <defs>
    <linearGradient id="bg" x1="0" y1="0" x2="1" y2="1"><stop offset="0" stop-color="#062017"/><stop offset="0.5" stop-color="#0a2233"/><stop offset="1" stop-color="#101a3a"/></linearGradient>
    <radialGradient id="glow" cx="80%" cy="10%" r="72%"><stop offset="0" stop-color="#10b981" stop-opacity="0.45"/><stop offset="1" stop-color="#10b981" stop-opacity="0"/></radialGradient>
    <radialGradient id="glow2" cx="12%" cy="90%" r="60%"><stop offset="0" stop-color="#2f6bff" stop-opacity="0.4"/><stop offset="1" stop-color="#2f6bff" stop-opacity="0"/></radialGradient>
    <pattern id="dots" width="34" height="34" patternUnits="userSpaceOnUse"><circle cx="2" cy="2" r="1.6" fill="#fff" opacity="0.06"/></pattern>
    <linearGradient id="ac" x1="0" y1="0" x2="1" y2="0"><stop offset="0" stop-color="#6ee7b7"/><stop offset="1" stop-color="#67e8f9"/></linearGradient>
  </defs>
  <rect width="1200" height="630" fill="url(#bg)"/><rect width="1200" height="630" fill="url(#dots)"/><rect width="1200" height="630" fill="url(#glow)"/><rect width="1200" height="630" fill="url(#glow2)"/>
  <g transform="translate(80,88)"><rect width="252" height="48" rx="24" fill="#10b981" opacity="0.2"/><text x="126" y="32" text-anchor="middle" font-size="23" font-weight="700" fill="#6ee7b7">⚡ Workplace Automation</text></g>
  <text x="80" y="248" font-size="64" font-weight="800" fill="#fff">PDF·스캔 문서에서</text>
  <text x="80" y="330" font-size="60" font-weight="800" fill="url(#ac)">표 자동 추출</text>
  <text x="80" y="400" font-size="30" font-weight="500" fill="#aab0d6">파이썬으로 반복 입력을 없애기</text>
  <g transform="translate(80,456)" font-size="23" font-weight="700">
    <g><rect width="110" height="52" rx="12" fill="#fff" opacity="0.08"/><text x="55" y="34" text-anchor="middle" fill="#e8eaff">PDF</text></g>
    <g transform="translate(126,0)"><rect width="140" height="52" rx="12" fill="#fff" opacity="0.08"/><text x="70" y="34" text-anchor="middle" fill="#e8eaff">표 추출</text></g>
    <g transform="translate(282,0)"><rect width="110" height="52" rx="12" fill="#fff" opacity="0.08"/><text x="55" y="34" text-anchor="middle" fill="#e8eaff">OCR</text></g>
    <g transform="translate(408,0)"><rect width="120" height="52" rx="12" fill="#fff" opacity="0.08"/><text x="60" y="34" text-anchor="middle" fill="#e8eaff">엑셀</text></g>
  </g>
  <text x="1120" y="560" text-anchor="end" font-size="30" font-weight="800" fill="#fff" opacity="0.85">NEXT X</text>
</svg>
