<svg xmlns="http://www.w3.org/2000/svg" viewBox="0 0 1200 630" width="1200" height="630" font-family="'Apple SD Gothic Neo','Malgun Gothic','Noto Sans KR','Segoe UI',sans-serif">
  <defs>
    <linearGradient id="bg" x1="0" y1="0" x2="1" y2="1"><stop offset="0" stop-color="#0b1030"/><stop offset="0.5" stop-color="#1a1548"/><stop offset="1" stop-color="#2a1550"/></linearGradient>
    <radialGradient id="glow" cx="82%" cy="12%" r="72%"><stop offset="0" stop-color="#7c3aed" stop-opacity="0.5"/><stop offset="1" stop-color="#7c3aed" stop-opacity="0"/></radialGradient>
    <radialGradient id="glow2" cx="10%" cy="88%" r="60%"><stop offset="0" stop-color="#2f6bff" stop-opacity="0.45"/><stop offset="1" stop-color="#2f6bff" stop-opacity="0"/></radialGradient>
    <pattern id="dots" width="34" height="34" patternUnits="userSpaceOnUse"><circle cx="2" cy="2" r="1.6" fill="#fff" opacity="0.06"/></pattern>
    <linearGradient id="ac" x1="0" y1="0" x2="1" y2="0"><stop offset="0" stop-color="#8ab4ff"/><stop offset="1" stop-color="#c4b5fd"/></linearGradient>
  </defs>
  <rect width="1200" height="630" fill="url(#bg)"/><rect width="1200" height="630" fill="url(#dots)"/><rect width="1200" height="630" fill="url(#glow)"/><rect width="1200" height="630" fill="url(#glow2)"/>
  <g transform="translate(80,88)"><rect width="230" height="48" rx="24" fill="#7c3aed" opacity="0.22"/><text x="115" y="32" text-anchor="middle" font-size="23" font-weight="700" fill="#c4b5fd">🤖 AI Transformation</text></g>
  <text x="80" y="248" font-size="66" font-weight="800" fill="#fff">이메일·문의 답장</text>
  <text x="80" y="330" font-size="56" font-weight="800" fill="url(#ac)">초안 자동화</text>
  <text x="80" y="400" font-size="30" font-weight="500" fill="#aab0d6">반복 답변을 AI가 먼저 써준다</text>
  <g transform="translate(80,456)" font-size="23" font-weight="700">
    <g><rect width="120" height="52" rx="12" fill="#fff" opacity="0.08"/><text x="60" y="34" text-anchor="middle" fill="#e8eaff">분류</text></g>
    <g transform="translate(136,0)"><rect width="140" height="52" rx="12" fill="#fff" opacity="0.08"/><text x="70" y="34" text-anchor="middle" fill="#e8eaff">답변 초안</text></g>
    <g transform="translate(292,0)"><rect width="140" height="52" rx="12" fill="#fff" opacity="0.08"/><text x="70" y="34" text-anchor="middle" fill="#e8eaff">톤 조정</text></g>
    <g transform="translate(448,0)"><rect width="140" height="52" rx="12" fill="#fff" opacity="0.08"/><text x="70" y="34" text-anchor="middle" fill="#e8eaff">사람 검수</text></g>
  </g>
  <text x="1120" y="560" text-anchor="end" font-size="30" font-weight="800" fill="#fff" opacity="0.85">NEXT X</text>
</svg>
