<svg viewBox="0 0 1200 630" xmlns="http://www.w3.org/2000/svg" font-family="'Segoe UI','Apple SD Gothic Neo','Malgun Gothic',sans-serif">
  <defs>
    <linearGradient id="bg" x1="0%" y1="0%" x2="100%" y2="100%">
      <stop offset="0%" stop-color="#1e3a5f"/>
      <stop offset="50%" stop-color="#1d4ed8"/>
      <stop offset="100%" stop-color="#0ea5e9"/>
    </linearGradient>
    <linearGradient id="cardGrad" x1="0%" y1="0%" x2="100%" y2="100%">
      <stop offset="0%" stop-color="#ffffff" stop-opacity="0.12"/>
      <stop offset="100%" stop-color="#ffffff" stop-opacity="0.04"/>
    </linearGradient>
  </defs>

  <rect width="1200" height="630" fill="url(#bg)"/>

  <!-- Grid pattern -->
  <g opacity="0.04">
    <line x1="0" y1="80" x2="1200" y2="80" stroke="#fff" stroke-width="1"/>
    <line x1="0" y1="160" x2="1200" y2="160" stroke="#fff" stroke-width="1"/>
    <line x1="0" y1="240" x2="1200" y2="240" stroke="#fff" stroke-width="1"/>
    <line x1="0" y1="320" x2="1200" y2="320" stroke="#fff" stroke-width="1"/>
    <line x1="0" y1="400" x2="1200" y2="400" stroke="#fff" stroke-width="1"/>
    <line x1="100" y1="0" x2="100" y2="630" stroke="#fff" stroke-width="1"/>
    <line x1="200" y1="0" x2="200" y2="630" stroke="#fff" stroke-width="1"/>
    <line x1="300" y1="0" x2="300" y2="630" stroke="#fff" stroke-width="1"/>
    <line x1="400" y1="0" x2="400" y2="630" stroke="#fff" stroke-width="1"/>
    <line x1="500" y1="0" x2="500" y2="630" stroke="#fff" stroke-width="1"/>
    <line x1="600" y1="0" x2="600" y2="630" stroke="#fff" stroke-width="1"/>
    <line x1="700" y1="0" x2="700" y2="630" stroke="#fff" stroke-width="1"/>
    <line x1="800" y1="0" x2="800" y2="630" stroke="#fff" stroke-width="1"/>
    <line x1="900" y1="0" x2="900" y2="630" stroke="#fff" stroke-width="1"/>
    <line x1="1000" y1="0" x2="1000" y2="630" stroke="#fff" stroke-width="1"/>
    <line x1="1100" y1="0" x2="1100" y2="630" stroke="#fff" stroke-width="1"/>
  </g>

  <!-- Version badge -->
  <g transform="translate(60, 50)">
    <rect x="0" y="0" width="55" height="28" rx="14" fill="#0ea5e9" fill-opacity="0.4" stroke="#38bdf8" stroke-opacity="0.5"/>
    <text x="27" y="19" text-anchor="middle" fill="#7dd3fc" font-size="12" font-weight="700">v5</text>
  </g>

  <!-- Mini calendar mockup -->
  <g transform="translate(60, 95)">
    <rect x="0" y="0" width="680" height="310" rx="16" fill="url(#cardGrad)" stroke="#38bdf8" stroke-opacity="0.2" stroke-width="1.5"/>

    <!-- Calendar header -->
    <text x="20" y="30" fill="#7dd3fc" font-size="14" font-weight="700">&#x1F4C5; 2026&#xB144; 7&#xC6D4; &#x2014; &#xD1B5;&#xD569; &#xC77C;&#xC815; &#xB2EC;&#xB825;</text>

    <!-- Day headers -->
    <g transform="translate(20, 50)">
      <text x="0" y="0" fill="#f87171" font-size="10" font-weight="700">&#xC77C;</text>
      <text x="92" y="0" fill="#94a3b8" font-size="10" font-weight="700">&#xC6D4;</text>
      <text x="184" y="0" fill="#94a3b8" font-size="10" font-weight="700">&#xD654;</text>
      <text x="276" y="0" fill="#94a3b8" font-size="10" font-weight="700">&#xC218;</text>
      <text x="368" y="0" fill="#94a3b8" font-size="10" font-weight="700">&#xBAA9;</text>
      <text x="460" y="0" fill="#94a3b8" font-size="10" font-weight="700">&#xAE08;</text>
      <text x="552" y="0" fill="#60a5fa" font-size="10" font-weight="700">&#xD1A0;</text>
    </g>

    <!-- Calendar cells row 1 -->
    <g transform="translate(20, 60)">
      <!-- Empty cells -->
      <rect x="0" y="0" width="86" height="56" rx="4" fill="#fff" fill-opacity="0.02"/>
      <rect x="92" y="0" width="86" height="56" rx="4" fill="#fff" fill-opacity="0.02"/>

      <!-- July 1 (Tue) -->
      <rect x="184" y="0" width="86" height="56" rx="4" fill="#fff" fill-opacity="0.05"/>
      <text x="190" y="14" fill="#94a3b8" font-size="10" font-weight="600">1</text>

      <!-- July 2 (Wed) with entries -->
      <rect x="276" y="0" width="86" height="56" rx="4" fill="#fff" fill-opacity="0.05"/>
      <text x="282" y="14" fill="#94a3b8" font-size="10" font-weight="600">2</text>
      <rect x="280" y="20" width="78" height="12" rx="3" fill="#ffe4e6" fill-opacity="0.6"/>
      <text x="284" y="29" fill="#f87171" font-size="7">[&#xD734;&#xBB34;] &#xAE40;&#xACBD;&#xC544;</text>
      <rect x="280" y="34" width="78" height="12" rx="3" fill="#fef3c7" fill-opacity="0.6"/>
      <text x="284" y="43" fill="#d97706" font-size="7">[&#xB300;&#xAE30;] &#xBC15;&#xACE0;&#xAC1D; - &#xC81C;&#xC8FC;</text>

      <!-- July 3 (Thu) -->
      <rect x="368" y="0" width="86" height="56" rx="4" fill="#fff" fill-opacity="0.05"/>
      <text x="374" y="14" fill="#94a3b8" font-size="10" font-weight="600">3</text>
      <rect x="372" y="20" width="78" height="12" rx="3" fill="#dbeafe" fill-opacity="0.6"/>
      <text x="376" y="29" fill="#2563eb" font-size="7">[&#xC644;&#xB8CC;] &#xC774;&#xACE0;&#xAC1D; - &#xAC15;&#xC11C;</text>

      <!-- July 4 (Fri) -->
      <rect x="460" y="0" width="86" height="56" rx="4" fill="#fff" fill-opacity="0.05"/>
      <text x="466" y="14" fill="#94a3b8" font-size="10" font-weight="600">4</text>

      <!-- July 5 (Sat) -->
      <rect x="552" y="0" width="86" height="56" rx="4" fill="#fff" fill-opacity="0.05"/>
      <text x="558" y="14" fill="#60a5fa" font-size="10" font-weight="600">5</text>
    </g>

    <!-- Calendar cells row 2 -->
    <g transform="translate(20, 120)">
      <!-- July 6 (Sun) -->
      <rect x="0" y="0" width="86" height="56" rx="4" fill="#fff" fill-opacity="0.05"/>
      <text x="6" y="14" fill="#f87171" font-size="10" font-weight="600">6</text>

      <!-- July 7 (Mon) with multiple entries -->
      <rect x="92" y="0" width="86" height="56" rx="4" fill="#fff" fill-opacity="0.05"/>
      <text x="98" y="14" fill="#94a3b8" font-size="10" font-weight="600">7</text>
      <text x="148" y="14" fill="#64748b" font-size="7">3&#xAC74;</text>
      <rect x="96" y="20" width="78" height="10" rx="3" fill="#ffe4e6" fill-opacity="0.6"/>
      <text x="100" y="28" fill="#f87171" font-size="6.5">[&#xD734;&#xBB34;] &#xCC9C;&#xC608;&#xD76C;</text>
      <rect x="96" y="32" width="78" height="10" rx="3" fill="#fef3c7" fill-opacity="0.6"/>
      <text x="100" y="40" fill="#d97706" font-size="6.5">[&#xB300;&#xAE30;] &#xCD5C;&#xACE0;&#xAC1D; - &#xC11C;&#xADC0;</text>
      <rect x="96" y="44" width="78" height="10" rx="3" fill="#dbeafe" fill-opacity="0.6"/>
      <text x="100" y="52" fill="#2563eb" font-size="6.5">[&#xC644;&#xB8CC;] &#xC815;&#xACE0;&#xAC1D; - &#xC81C;&#xC8FC;</text>

      <!-- July 8 -->
      <rect x="184" y="0" width="86" height="56" rx="4" fill="#fff" fill-opacity="0.05"/>
      <text x="190" y="14" fill="#94a3b8" font-size="10" font-weight="600">8</text>

      <!-- July 9 -->
      <rect x="276" y="0" width="86" height="56" rx="4" fill="#fff" fill-opacity="0.05"/>
      <text x="282" y="14" fill="#94a3b8" font-size="10" font-weight="600">9</text>
      <rect x="280" y="20" width="78" height="12" rx="3" fill="#f3f4f6" fill-opacity="0.4"/>
      <text x="284" y="29" fill="#6b7280" font-size="7">[&#xC885;&#xB8CC;] &#xD55C;&#xACE0;&#xAC1D; - &#xC560;&#xC6D4;</text>

      <!-- July 10 - today highlight -->
      <rect x="368" y="0" width="86" height="56" rx="4" fill="#1d4ed8" fill-opacity="0.15"/>
      <circle cx="380" cy="10" r="9" fill="#1d4ed8"/>
      <text x="380" y="14" text-anchor="middle" fill="#fff" font-size="9" font-weight="700">10</text>
      <rect x="372" y="24" width="78" height="12" rx="3" fill="#fef3c7" fill-opacity="0.6"/>
      <text x="376" y="33" fill="#d97706" font-size="7">[&#xB300;&#xAE30;] &#xAE40;&#xACE0;&#xAC1D; - &#xC81C;&#xC8FC;</text>
      <rect x="372" y="38" width="78" height="12" rx="3" fill="#ffe4e6" fill-opacity="0.6"/>
      <text x="376" y="47" fill="#f87171" font-size="7">[&#xD734;&#xBB34;] &#xBC30;&#xC601;&#xD654;</text>

      <!-- July 11 -->
      <rect x="460" y="0" width="86" height="56" rx="4" fill="#fff" fill-opacity="0.05"/>
      <text x="466" y="14" fill="#94a3b8" font-size="10" font-weight="600">11</text>

      <!-- July 12 -->
      <rect x="552" y="0" width="86" height="56" rx="4" fill="#fff" fill-opacity="0.05"/>
      <text x="558" y="14" fill="#60a5fa" font-size="10" font-weight="600">12</text>
    </g>

    <!-- Legend -->
    <g transform="translate(20, 200)">
      <rect x="0" y="0" width="10" height="10" rx="2" fill="#ffe4e6" stroke="#fecdd3"/>
      <text x="14" y="9" fill="#94a3b8" font-size="8">&#xD734;&#xBB34;</text>
      <rect x="60" y="0" width="10" height="10" rx="2" fill="#fef3c7" stroke="#fde68a"/>
      <text x="74" y="9" fill="#94a3b8" font-size="8">&#xB300;&#xAE30;</text>
      <rect x="120" y="0" width="10" height="10" rx="2" fill="#dbeafe" stroke="#bfdbfe"/>
      <text x="134" y="9" fill="#94a3b8" font-size="8">&#xC644;&#xB8CC;</text>
      <rect x="180" y="0" width="10" height="10" rx="2" fill="#f3f4f6" stroke="#d1d5db"/>
      <text x="194" y="9" fill="#94a3b8" font-size="8">&#xC885;&#xB8CC;</text>
    </g>
  </g>

  <!-- Before/After comparison -->
  <g transform="translate(770, 95)">
    <rect x="0" y="0" width="370" height="140" rx="16" fill="url(#cardGrad)" stroke="#a78bfa" stroke-opacity="0.3" stroke-width="1.5"/>
    <text x="20" y="28" fill="#a78bfa" font-size="13" font-weight="700">BEFORE: &#xB370;&#xC774;&#xD130; &#xBD84;&#xC0B0;</text>

    <!-- 3 separate calendars -->
    <g transform="translate(30, 45)">
      <rect x="0" y="0" width="90" height="55" rx="6" fill="#fff" fill-opacity="0.06" stroke="#f87171" stroke-opacity="0.3"/>
      <text x="45" y="15" text-anchor="middle" fill="#f87171" font-size="8" font-weight="600">&#xD734;&#xBB34;&#xC77C; &#xB2EC;&#xB825;</text>
      <rect x="8" y="22" width="30" height="6" rx="2" fill="#ffe4e6" fill-opacity="0.5"/>
      <rect x="8" y="31" width="45" height="6" rx="2" fill="#ffe4e6" fill-opacity="0.5"/>
      <rect x="8" y="40" width="25" height="6" rx="2" fill="#ffe4e6" fill-opacity="0.5"/>
    </g>
    <g transform="translate(140, 45)">
      <rect x="0" y="0" width="90" height="55" rx="6" fill="#fff" fill-opacity="0.06" stroke="#fbbf24" stroke-opacity="0.3"/>
      <text x="45" y="15" text-anchor="middle" fill="#fbbf24" font-size="8" font-weight="600">&#xBC30;&#xC815; &#xB2EC;&#xB825;</text>
      <rect x="8" y="22" width="40" height="6" rx="2" fill="#fef3c7" fill-opacity="0.5"/>
      <rect x="8" y="31" width="55" height="6" rx="2" fill="#dbeafe" fill-opacity="0.5"/>
      <rect x="8" y="40" width="35" height="6" rx="2" fill="#f3f4f6" fill-opacity="0.4"/>
    </g>
    <g transform="translate(250, 45)">
      <rect x="0" y="0" width="90" height="55" rx="6" fill="#fff" fill-opacity="0.06" stroke="#94a3b8" stroke-opacity="0.3"/>
      <text x="45" y="15" text-anchor="middle" fill="#94a3b8" font-size="8" font-weight="600">&#xAE09;&#xC5EC; &#xC870;&#xD68C;</text>
      <rect x="8" y="22" width="50" height="6" rx="2" fill="#c4b5fd" fill-opacity="0.4"/>
      <rect x="8" y="31" width="40" height="6" rx="2" fill="#c4b5fd" fill-opacity="0.4"/>
    </g>

    <text x="185" y="120" text-anchor="middle" fill="#94a3b8" font-size="9" font-style="italic">3&#xAC1C; &#xD654;&#xBA74;&#xC744; &#xBC88;&#xAC08;&#xC544; &#xD655;&#xC778;&#xD574;&#xC57C; &#xD588;&#xB358; &#xBD88;&#xD3B8;</text>
  </g>

  <!-- After -->
  <g transform="translate(770, 250)">
    <rect x="0" y="0" width="370" height="155" rx="16" fill="url(#cardGrad)" stroke="#34d399" stroke-opacity="0.3" stroke-width="1.5"/>
    <text x="20" y="28" fill="#34d399" font-size="13" font-weight="700">AFTER: &#xD1B5;&#xD569; &#xB2EC;&#xB825; &#xD55C; &#xD654;&#xBA74;</text>

    <!-- Single unified calendar -->
    <g transform="translate(30, 45)">
      <rect x="0" y="0" width="310" height="85" rx="8" fill="#fff" fill-opacity="0.06" stroke="#34d399" stroke-opacity="0.3"/>
      <text x="155" y="15" text-anchor="middle" fill="#34d399" font-size="9" font-weight="600">&#x1F4C5; &#xD1B5;&#xD569; &#xC77C;&#xC815; &#xB2EC;&#xB825;</text>

      <!-- Mixed entries -->
      <rect x="10" y="24" width="90" height="8" rx="2" fill="#ffe4e6" fill-opacity="0.6"/>
      <text x="14" y="31" fill="#f87171" font-size="5.5">[&#xD734;&#xBB34;] &#xAE40;&#xACBD;&#xC544;</text>
      <rect x="10" y="35" width="90" height="8" rx="2" fill="#fef3c7" fill-opacity="0.6"/>
      <text x="14" y="42" fill="#d97706" font-size="5.5">[&#xB300;&#xAE30;] &#xBC15;&#xACE0;&#xAC1D; - &#xC81C;&#xC8FC;</text>
      <rect x="10" y="46" width="90" height="8" rx="2" fill="#dbeafe" fill-opacity="0.6"/>
      <text x="14" y="53" fill="#2563eb" font-size="5.5">[&#xC644;&#xB8CC;] &#xC774;&#xACE0;&#xAC1D; - &#xAC15;&#xC11C;</text>

      <rect x="110" y="24" width="90" height="8" rx="2" fill="#ffe4e6" fill-opacity="0.6"/>
      <text x="114" y="31" fill="#f87171" font-size="5.5">[&#xD734;&#xBB34;] &#xCC9C;&#xC608;&#xD76C;</text>
      <rect x="110" y="35" width="90" height="8" rx="2" fill="#fef3c7" fill-opacity="0.6"/>
      <text x="114" y="42" fill="#d97706" font-size="5.5">[&#xB300;&#xAE30;] &#xCD5C;&#xACE0;&#xAC1D;</text>

      <rect x="210" y="24" width="90" height="8" rx="2" fill="#f3f4f6" fill-opacity="0.4"/>
      <text x="214" y="31" fill="#6b7280" font-size="5.5">[&#xC885;&#xB8CC;] &#xD55C;&#xACE0;&#xAC1D;</text>

      <!-- Click action hint -->
      <text x="60" y="72" fill="#94a3b8" font-size="7">&#xD074;&#xB9AD; &#x2192; &#xBAA8;&#xB2EC; &#xC0C1;&#xC138;</text>
      <text x="180" y="72" fill="#94a3b8" font-size="7">&#xD074;&#xB9AD; &#x2192; &#xD734;&#xBB34; &#xC0C1;&#xC138;</text>
    </g>

    <text x="185" y="145" text-anchor="middle" fill="#6ee7b7" font-size="9" font-weight="600">&#xD734;&#xBB34; + &#xBC30;&#xC815; + &#xC0C1;&#xD0DC;&#xBCC4; &#xC0C9;&#xC0C1; &#x2192; &#xD55C;&#xB208;&#xC5D0; &#xD30C;&#xC545;</text>
  </g>

  <!-- Title -->
  <text x="60" y="475" fill="#fff" font-size="36" font-weight="800">
    Partners Manager v5
  </text>
  <text x="60" y="515" fill="#7dd3fc" font-size="22" font-weight="600">
    Unified Schedule Calendar
  </text>

  <!-- Subtitle -->
  <text x="60" y="553" fill="#94a3b8" font-size="14">
    Day-off + Assignment + Status  &#x2192;  One Unified Calendar View
  </text>

  <!-- Company badge -->
  <g transform="translate(60, 575)">
    <rect x="0" y="0" width="30" height="22" rx="6" fill="#fff" fill-opacity="0.15"/>
    <text x="15" y="16" text-anchor="middle" fill="#fff" font-size="9" font-weight="800">KJ</text>
    <text x="40" y="15" fill="#64748b" font-size="11">KJ Partners  &#xB7;  Unified Schedule Management</text>
  </g>

  <!-- Tech badges -->
  <g transform="translate(900, 575)">
    <rect x="0" y="0" width="70" height="22" rx="11" fill="#3ecf8e" fill-opacity="0.2" stroke="#3ecf8e" stroke-opacity="0.3"/>
    <text x="35" y="15" text-anchor="middle" fill="#3ecf8e" font-size="9" font-weight="600">Supabase</text>
    <rect x="80" y="0" width="55" height="22" rx="11" fill="#38bdf8" fill-opacity="0.2" stroke="#38bdf8" stroke-opacity="0.3"/>
    <text x="107" y="15" text-anchor="middle" fill="#38bdf8" font-size="9" font-weight="600">Tailwind</text>
    <rect x="145" y="0" width="90" height="22" rx="11" fill="#a78bfa" fill-opacity="0.2" stroke="#a78bfa" stroke-opacity="0.3"/>
    <text x="190" y="15" text-anchor="middle" fill="#a78bfa" font-size="9" font-weight="600">Vanilla JS</text>
  </g>
</svg>
