<svg viewBox="0 0 1200 630" xmlns="http://www.w3.org/2000/svg" font-family="'Segoe UI','Apple SD Gothic Neo','Malgun Gothic',sans-serif">
  <defs>
    <linearGradient id="bg" x1="0%" y1="0%" x2="100%" y2="100%">
      <stop offset="0%" stop-color="#1e3a5f"/>
      <stop offset="50%" stop-color="#1d4ed8"/>
      <stop offset="100%" stop-color="#7c3aed"/>
    </linearGradient>
    <linearGradient id="cardGrad" x1="0%" y1="0%" x2="100%" y2="100%">
      <stop offset="0%" stop-color="#ffffff" stop-opacity="0.12"/>
      <stop offset="100%" stop-color="#ffffff" stop-opacity="0.04"/>
    </linearGradient>
  </defs>

  <rect width="1200" height="630" fill="url(#bg)"/>

  <!-- Grid pattern -->
  <g opacity="0.04">
    <line x1="0" y1="80" x2="1200" y2="80" stroke="#fff" stroke-width="1"/>
    <line x1="0" y1="160" x2="1200" y2="160" stroke="#fff" stroke-width="1"/>
    <line x1="0" y1="240" x2="1200" y2="240" stroke="#fff" stroke-width="1"/>
    <line x1="0" y1="320" x2="1200" y2="320" stroke="#fff" stroke-width="1"/>
    <line x1="0" y1="400" x2="1200" y2="400" stroke="#fff" stroke-width="1"/>
    <line x1="100" y1="0" x2="100" y2="630" stroke="#fff" stroke-width="1"/>
    <line x1="200" y1="0" x2="200" y2="630" stroke="#fff" stroke-width="1"/>
    <line x1="300" y1="0" x2="300" y2="630" stroke="#fff" stroke-width="1"/>
    <line x1="400" y1="0" x2="400" y2="630" stroke="#fff" stroke-width="1"/>
    <line x1="500" y1="0" x2="500" y2="630" stroke="#fff" stroke-width="1"/>
    <line x1="600" y1="0" x2="600" y2="630" stroke="#fff" stroke-width="1"/>
    <line x1="700" y1="0" x2="700" y2="630" stroke="#fff" stroke-width="1"/>
    <line x1="800" y1="0" x2="800" y2="630" stroke="#fff" stroke-width="1"/>
    <line x1="900" y1="0" x2="900" y2="630" stroke="#fff" stroke-width="1"/>
    <line x1="1000" y1="0" x2="1000" y2="630" stroke="#fff" stroke-width="1"/>
    <line x1="1100" y1="0" x2="1100" y2="630" stroke="#fff" stroke-width="1"/>
  </g>

  <!-- Version badge -->
  <g transform="translate(60, 50)">
    <rect x="0" y="0" width="75" height="28" rx="14" fill="#7c3aed" fill-opacity="0.4" stroke="#a78bfa" stroke-opacity="0.5"/>
    <text x="37" y="19" text-anchor="middle" fill="#c4b5fd" font-size="12" font-weight="700">v3.1</text>
  </g>

  <!-- Feature flow: v3 → Day-Off Table → Registration → Calendar → Conflict Guard → v3.1 -->
  <g transform="translate(60, 95)">
    <rect x="0" y="0" width="130" height="80" rx="14" fill="url(#cardGrad)" stroke="#fff" stroke-opacity="0.15" stroke-width="1"/>
    <text x="65" y="30" text-anchor="middle" fill="#fff" font-size="20">👥</text>
    <text x="65" y="52" text-anchor="middle" fill="#fff" font-size="12" font-weight="700">v3 팀 배정</text>
    <text x="65" y="68" text-anchor="middle" fill="#93c5fd" font-size="9">Leader + Members</text>
  </g>

  <line x1="200" y1="135" x2="225" y2="135" stroke="#a78bfa" stroke-opacity="0.5" stroke-width="2"/>
  <polygon points="225,130 235,135 225,140" fill="#a78bfa" fill-opacity="0.5"/>

  <g transform="translate(245, 95)">
    <rect x="0" y="0" width="145" height="80" rx="14" fill="url(#cardGrad)" stroke="#a78bfa" stroke-opacity="0.3" stroke-width="1.5"/>
    <text x="72" y="30" text-anchor="middle" fill="#fff" font-size="20">🗄️</text>
    <text x="72" y="52" text-anchor="middle" fill="#fff" font-size="12" font-weight="700">Day-Off Table</text>
    <text x="72" y="68" text-anchor="middle" fill="#c4b5fd" font-size="9">partner_day_offs</text>
  </g>

  <line x1="400" y1="135" x2="425" y2="135" stroke="#a78bfa" stroke-opacity="0.5" stroke-width="2"/>
  <polygon points="425,130 435,135 425,140" fill="#a78bfa" fill-opacity="0.5"/>

  <g transform="translate(445, 95)">
    <rect x="0" y="0" width="130" height="80" rx="14" fill="url(#cardGrad)" stroke="#a78bfa" stroke-opacity="0.3" stroke-width="1.5"/>
    <text x="65" y="30" text-anchor="middle" fill="#fff" font-size="20">📝</text>
    <text x="65" y="52" text-anchor="middle" fill="#fff" font-size="12" font-weight="700">Registration</text>
    <text x="65" y="68" text-anchor="middle" fill="#c4b5fd" font-size="9">Date Range + Reason</text>
  </g>

  <line x1="585" y1="135" x2="610" y2="135" stroke="#a78bfa" stroke-opacity="0.5" stroke-width="2"/>
  <polygon points="610,130 620,135 610,140" fill="#a78bfa" fill-opacity="0.5"/>

  <g transform="translate(630, 95)">
    <rect x="0" y="0" width="130" height="80" rx="14" fill="url(#cardGrad)" stroke="#a78bfa" stroke-opacity="0.3" stroke-width="1.5"/>
    <text x="65" y="30" text-anchor="middle" fill="#fff" font-size="20">🗓️</text>
    <text x="65" y="52" text-anchor="middle" fill="#fff" font-size="12" font-weight="700">Calendar View</text>
    <text x="65" y="68" text-anchor="middle" fill="#c4b5fd" font-size="9">Monthly Day-Off</text>
  </g>

  <line x1="770" y1="135" x2="795" y2="135" stroke="#a78bfa" stroke-opacity="0.5" stroke-width="2"/>
  <polygon points="795,130 805,135 795,140" fill="#a78bfa" fill-opacity="0.5"/>

  <g transform="translate(815, 95)">
    <rect x="0" y="0" width="145" height="80" rx="14" fill="url(#cardGrad)" stroke="#fb7185" stroke-opacity="0.4" stroke-width="1.5"/>
    <text x="72" y="30" text-anchor="middle" fill="#fff" font-size="20">🛡️</text>
    <text x="72" y="52" text-anchor="middle" fill="#fff" font-size="12" font-weight="700">Conflict Guard</text>
    <text x="72" y="68" text-anchor="middle" fill="#fda4af" font-size="9">Assignment Block</text>
  </g>

  <line x1="970" y1="135" x2="995" y2="135" stroke="#a78bfa" stroke-opacity="0.5" stroke-width="2"/>
  <polygon points="995,130 1005,135 995,140" fill="#a78bfa" fill-opacity="0.5"/>

  <g transform="translate(1015, 95)">
    <rect x="0" y="0" width="120" height="80" rx="14" fill="#7c3aed" fill-opacity="0.2" stroke="#a78bfa" stroke-opacity="0.6" stroke-width="2"/>
    <text x="60" y="30" text-anchor="middle" fill="#fff" font-size="20">🚀</text>
    <text x="60" y="52" text-anchor="middle" fill="#fff" font-size="12" font-weight="700">v3.1 Live</text>
    <text x="60" y="68" text-anchor="middle" fill="#a78bfa" font-size="9">Day-Off Mgmt</text>
  </g>

  <!-- Calendar mockup -->
  <g transform="translate(80, 220)">
    <rect x="0" y="0" width="480" height="200" rx="16" fill="#fff" fill-opacity="0.06" stroke="#fff" stroke-opacity="0.1"/>
    <text x="20" y="28" fill="#fb7185" fill-opacity="0.9" font-size="12" font-weight="700">휴무일 현황 달력 — 2026년 7월</text>

    <!-- Mini calendar grid -->
    <g transform="translate(20, 42)">
      <!-- Day headers -->
      <text x="12" y="15" text-anchor="middle" fill="#ef4444" fill-opacity="0.5" font-size="9" font-weight="700">일</text>
      <text x="75" y="15" text-anchor="middle" fill="#fff" fill-opacity="0.3" font-size="9" font-weight="700">월</text>
      <text x="138" y="15" text-anchor="middle" fill="#fff" fill-opacity="0.3" font-size="9" font-weight="700">화</text>
      <text x="201" y="15" text-anchor="middle" fill="#fff" fill-opacity="0.3" font-size="9" font-weight="700">수</text>
      <text x="264" y="15" text-anchor="middle" fill="#fff" fill-opacity="0.3" font-size="9" font-weight="700">목</text>
      <text x="327" y="15" text-anchor="middle" fill="#fff" fill-opacity="0.3" font-size="9" font-weight="700">금</text>
      <text x="390" y="15" text-anchor="middle" fill="#3b82f6" fill-opacity="0.5" font-size="9" font-weight="700">토</text>

      <!-- Row 1: days 1-5 (starting Wed) -->
      <rect x="170" y="22" width="58" height="35" rx="4" fill="#fff" fill-opacity="0.04"/>
      <text x="175" y="34" fill="#fff" fill-opacity="0.4" font-size="9">1</text>
      <rect x="233" y="22" width="58" height="35" rx="4" fill="#fff" fill-opacity="0.04"/>
      <text x="238" y="34" fill="#fff" fill-opacity="0.4" font-size="9">2</text>
      <rect x="296" y="22" width="58" height="35" rx="4" fill="#fff" fill-opacity="0.04"/>
      <text x="301" y="34" fill="#fff" fill-opacity="0.4" font-size="9">3</text>
      <rect x="359" y="22" width="58" height="35" rx="4" fill="#fff" fill-opacity="0.04"/>
      <text x="364" y="34" fill="#fff" fill-opacity="0.4" font-size="9">4</text>

      <!-- Row with day-offs highlighted (21~23) -->
      <rect x="44" y="100" width="58" height="35" rx="4" fill="#fb7185" fill-opacity="0.12" stroke="#fb7185" stroke-opacity="0.3"/>
      <text x="49" y="112" fill="#fff" fill-opacity="0.6" font-size="9" font-weight="600">21</text>
      <rect x="50" y="115" width="46" height="14" rx="3" fill="#ffe4e6" fill-opacity="0.3"/>
      <text x="73" y="124" text-anchor="middle" fill="#fb7185" font-size="7" font-weight="600">강미경</text>

      <rect x="107" y="100" width="58" height="35" rx="4" fill="#fb7185" fill-opacity="0.12" stroke="#fb7185" stroke-opacity="0.3"/>
      <text x="112" y="112" fill="#fff" fill-opacity="0.6" font-size="9" font-weight="600">22</text>
      <rect x="113" y="115" width="46" height="14" rx="3" fill="#ffe4e6" fill-opacity="0.3"/>
      <text x="136" y="124" text-anchor="middle" fill="#fb7185" font-size="7" font-weight="600">강미경</text>

      <rect x="170" y="100" width="58" height="35" rx="4" fill="#fb7185" fill-opacity="0.12" stroke="#fb7185" stroke-opacity="0.3"/>
      <text x="175" y="112" fill="#fff" fill-opacity="0.6" font-size="9" font-weight="600">23</text>
      <rect x="176" y="115" width="46" height="14" rx="3" fill="#ffe4e6" fill-opacity="0.3"/>
      <text x="199" y="124" text-anchor="middle" fill="#fb7185" font-size="7" font-weight="600">강미경</text>

      <!-- Normal days -->
      <rect x="233" y="100" width="58" height="35" rx="4" fill="#fff" fill-opacity="0.04"/>
      <text x="238" y="112" fill="#fff" fill-opacity="0.4" font-size="9">24</text>
      <rect x="296" y="100" width="58" height="35" rx="4" fill="#fff" fill-opacity="0.04"/>
      <text x="301" y="112" fill="#fff" fill-opacity="0.4" font-size="9">25</text>
      <rect x="359" y="100" width="58" height="35" rx="4" fill="#fff" fill-opacity="0.04"/>
      <text x="364" y="112" fill="#fff" fill-opacity="0.4" font-size="9">26</text>
    </g>

    <!-- Legend -->
    <rect x="20" y="175" width="8" height="8" rx="2" fill="#ffe4e6" stroke="#fda4af" stroke-width="0.5"/>
    <text x="33" y="183" fill="#fff" fill-opacity="0.4" font-size="8">휴무</text>
    <rect x="65" y="175" width="8" height="8" rx="2" fill="#fff" fill-opacity="0.06" stroke="#fff" stroke-opacity="0.1"/>
    <text x="78" y="183" fill="#fff" fill-opacity="0.4" font-size="8">근무 가능</text>
  </g>

  <!-- Conflict guard mockup -->
  <g transform="translate(640, 220)">
    <rect x="0" y="0" width="480" height="200" rx="16" fill="#fff" fill-opacity="0.06" stroke="#fb7185" stroke-opacity="0.2"/>
    <text x="20" y="28" fill="#22c55e" fill-opacity="0.9" font-size="12" font-weight="700">배정 충돌 방지 — 자동 스케줄 검증</text>

    <!-- Assignment form mockup -->
    <rect x="20" y="45" width="440" height="55" rx="10" fill="#fff" fill-opacity="0.05" stroke="#fff" stroke-opacity="0.08"/>
    <text x="35" y="65" fill="#fff" fill-opacity="0.6" font-size="10">팀장: 강미경 / 배정일: 2026-07-22</text>
    <text x="35" y="82" fill="#fff" fill-opacity="0.4" font-size="9">고객: 테스트고객 / 주소: 제주시</text>

    <!-- Arrow down -->
    <text x="240" y="118" text-anchor="middle" fill="#a78bfa" font-size="18">↓</text>

    <!-- Conflict toast -->
    <rect x="20" y="125" width="440" height="55" rx="10" fill="#ef4444" fill-opacity="0.1" stroke="#ef4444" stroke-opacity="0.3" stroke-width="1.5"/>
    <text x="40" y="148" fill="#fca5a5" font-size="13" font-weight="700">🚫 휴무일 충돌!</text>
    <text x="40" y="168" fill="#fda4af" font-size="10">강미경님이 2026-07-22에 휴무입니다 (개인 휴가)</text>

    <!-- Block indicator -->
    <rect x="380" y="135" width="65" height="35" rx="8" fill="#ef4444" fill-opacity="0.12" stroke="#ef4444" stroke-opacity="0.3"/>
    <text x="412" y="152" text-anchor="middle" fill="#ef4444" fill-opacity="0.8" font-size="8" font-weight="700">BLOCKED</text>
    <text x="412" y="163" text-anchor="middle" fill="#ef4444" fill-opacity="0.5" font-size="7">배정 차단</text>
  </g>

  <!-- Tech badges -->
  <g transform="translate(80, 450)">
    <rect x="0" y="0" width="100" height="26" rx="13" fill="#fff" fill-opacity="0.08" stroke="#fff" stroke-opacity="0.12"/>
    <text x="50" y="17" text-anchor="middle" fill="#93c5fd" font-size="10" font-weight="600">PostgreSQL</text>
    <rect x="110" y="0" width="65" height="26" rx="13" fill="#fff" fill-opacity="0.08" stroke="#fff" stroke-opacity="0.12"/>
    <text x="142" y="17" text-anchor="middle" fill="#93c5fd" font-size="10" font-weight="600">RLS</text>
    <rect x="185" y="0" width="110" height="26" rx="13" fill="#fff" fill-opacity="0.08" stroke="#fff" stroke-opacity="0.12"/>
    <text x="240" y="17" text-anchor="middle" fill="#93c5fd" font-size="10" font-weight="600">Date Range</text>
    <rect x="305" y="0" width="110" height="26" rx="13" fill="#fff" fill-opacity="0.08" stroke="#fff" stroke-opacity="0.12"/>
    <text x="360" y="17" text-anchor="middle" fill="#93c5fd" font-size="10" font-weight="600">Conflict Guard</text>
    <rect x="425" y="0" width="80" height="26" rx="13" fill="#fff" fill-opacity="0.08" stroke="#fff" stroke-opacity="0.12"/>
    <text x="465" y="17" text-anchor="middle" fill="#93c5fd" font-size="10" font-weight="600">Vanilla JS</text>
  </g>

  <!-- Title -->
  <text x="60" y="520" fill="#fff" font-size="34" font-weight="800" letter-spacing="-0.5">파트너스 매칭 매니저 v3.1</text>
  <text x="60" y="558" fill="#fff" fill-opacity="0.7" font-size="18">휴무일 관리 시스템 — 등록·달력·스케줄 충돌 방지</text>
  <text x="60" y="595" fill="#c4b5fd" font-size="14">NEXT X AX Solution · KJ Partners · Series #6</text>
</svg>
