<svg viewBox="0 0 1200 630" xmlns="http://www.w3.org/2000/svg" font-family="'Segoe UI','Apple SD Gothic Neo','Malgun Gothic',sans-serif">
  <defs>
    <linearGradient id="bg" x1="0%" y1="0%" x2="100%" y2="100%">
      <stop offset="0%" stop-color="#1e3a5f"/>
      <stop offset="50%" stop-color="#1d4ed8"/>
      <stop offset="100%" stop-color="#7c3aed"/>
    </linearGradient>
    <linearGradient id="cardGrad" x1="0%" y1="0%" x2="100%" y2="100%">
      <stop offset="0%" stop-color="#ffffff" stop-opacity="0.12"/>
      <stop offset="100%" stop-color="#ffffff" stop-opacity="0.04"/>
    </linearGradient>
    <linearGradient id="goldGrad" x1="0%" y1="0%" x2="100%" y2="100%">
      <stop offset="0%" stop-color="#fbbf24" stop-opacity="0.3"/>
      <stop offset="100%" stop-color="#f59e0b" stop-opacity="0.1"/>
    </linearGradient>
  </defs>

  <rect width="1200" height="630" fill="url(#bg)"/>

  <!-- Grid pattern -->
  <g opacity="0.04">
    <line x1="0" y1="80" x2="1200" y2="80" stroke="#fff" stroke-width="1"/>
    <line x1="0" y1="160" x2="1200" y2="160" stroke="#fff" stroke-width="1"/>
    <line x1="0" y1="240" x2="1200" y2="240" stroke="#fff" stroke-width="1"/>
    <line x1="0" y1="320" x2="1200" y2="320" stroke="#fff" stroke-width="1"/>
    <line x1="0" y1="400" x2="1200" y2="400" stroke="#fff" stroke-width="1"/>
    <line x1="100" y1="0" x2="100" y2="630" stroke="#fff" stroke-width="1"/>
    <line x1="200" y1="0" x2="200" y2="630" stroke="#fff" stroke-width="1"/>
    <line x1="300" y1="0" x2="300" y2="630" stroke="#fff" stroke-width="1"/>
    <line x1="400" y1="0" x2="400" y2="630" stroke="#fff" stroke-width="1"/>
    <line x1="500" y1="0" x2="500" y2="630" stroke="#fff" stroke-width="1"/>
    <line x1="600" y1="0" x2="600" y2="630" stroke="#fff" stroke-width="1"/>
    <line x1="700" y1="0" x2="700" y2="630" stroke="#fff" stroke-width="1"/>
    <line x1="800" y1="0" x2="800" y2="630" stroke="#fff" stroke-width="1"/>
    <line x1="900" y1="0" x2="900" y2="630" stroke="#fff" stroke-width="1"/>
    <line x1="1000" y1="0" x2="1000" y2="630" stroke="#fff" stroke-width="1"/>
    <line x1="1100" y1="0" x2="1100" y2="630" stroke="#fff" stroke-width="1"/>
  </g>

  <!-- Version badge -->
  <g transform="translate(60, 50)">
    <rect x="0" y="0" width="55" height="28" rx="14" fill="#7c3aed" fill-opacity="0.4" stroke="#a78bfa" stroke-opacity="0.5"/>
    <text x="27" y="19" text-anchor="middle" fill="#c4b5fd" font-size="12" font-weight="700">v4</text>
  </g>

  <!-- Feature flow: Assignments → Payroll Input → Calc → Dashboard → v4 -->

  <!-- Card 1: Completed Assignments -->
  <g transform="translate(60, 95)">
    <rect x="0" y="0" width="130" height="80" rx="14" fill="url(#cardGrad)" stroke="#fff" stroke-opacity="0.15" stroke-width="1"/>
    <text x="65" y="30" text-anchor="middle" fill="#fff" font-size="20">&#x2705;</text>
    <text x="65" y="52" text-anchor="middle" fill="#fff" font-size="12" font-weight="700">완료 배정</text>
    <text x="65" y="68" text-anchor="middle" fill="#93c5fd" font-size="9">Completed Jobs</text>
  </g>

  <line x1="200" y1="135" x2="225" y2="135" stroke="#a78bfa" stroke-opacity="0.5" stroke-width="2"/>
  <polygon points="225,130 235,135 225,140" fill="#a78bfa" fill-opacity="0.5"/>

  <!-- Card 2: Worker Input -->
  <g transform="translate(240, 95)">
    <rect x="0" y="0" width="150" height="80" rx="14" fill="url(#cardGrad)" stroke="#fbbf24" stroke-opacity="0.3" stroke-width="1.5"/>
    <text x="75" y="30" text-anchor="middle" fill="#fbbf24" font-size="20">&#x1F4DD;</text>
    <text x="75" y="52" text-anchor="middle" fill="#fff" font-size="12" font-weight="700">개별 급여 입력</text>
    <text x="75" y="68" text-anchor="middle" fill="#fde68a" font-size="9">Rate x Hours</text>
  </g>

  <line x1="400" y1="135" x2="425" y2="135" stroke="#a78bfa" stroke-opacity="0.5" stroke-width="2"/>
  <polygon points="425,130 435,135 425,140" fill="#a78bfa" fill-opacity="0.5"/>

  <!-- Card 3: Real-time Calc -->
  <g transform="translate(440, 95)">
    <rect x="0" y="0" width="140" height="80" rx="14" fill="url(#cardGrad)" stroke="#34d399" stroke-opacity="0.3" stroke-width="1.5"/>
    <text x="70" y="30" text-anchor="middle" fill="#34d399" font-size="20">&#x26A1;</text>
    <text x="70" y="52" text-anchor="middle" fill="#fff" font-size="12" font-weight="700">실시간 계산</text>
    <text x="70" y="68" text-anchor="middle" fill="#6ee7b7" font-size="9">Auto Total</text>
  </g>

  <line x1="590" y1="135" x2="615" y2="135" stroke="#a78bfa" stroke-opacity="0.5" stroke-width="2"/>
  <polygon points="615,130 625,135 615,140" fill="#a78bfa" fill-opacity="0.5"/>

  <!-- Card 4: Dashboard -->
  <g transform="translate(630, 95)">
    <rect x="0" y="0" width="150" height="80" rx="14" fill="url(#cardGrad)" stroke="#818cf8" stroke-opacity="0.3" stroke-width="1.5"/>
    <text x="75" y="30" text-anchor="middle" fill="#818cf8" font-size="20">&#x1F4CA;</text>
    <text x="75" y="52" text-anchor="middle" fill="#fff" font-size="12" font-weight="700">급여 대시보드</text>
    <text x="75" y="68" text-anchor="middle" fill="#a5b4fc" font-size="9">Stats + Table</text>
  </g>

  <line x1="790" y1="135" x2="815" y2="135" stroke="#a78bfa" stroke-opacity="0.5" stroke-width="2"/>
  <polygon points="815,130 825,135 815,140" fill="#a78bfa" fill-opacity="0.5"/>

  <!-- Card 5: v4 Result -->
  <g transform="translate(830, 95)">
    <rect x="0" y="0" width="100" height="80" rx="14" fill="url(#goldGrad)" stroke="#fbbf24" stroke-opacity="0.4" stroke-width="1.5"/>
    <text x="50" y="30" text-anchor="middle" fill="#fbbf24" font-size="20">&#x1F680;</text>
    <text x="50" y="52" text-anchor="middle" fill="#fff" font-size="13" font-weight="800">v4</text>
    <text x="50" y="68" text-anchor="middle" fill="#fde68a" font-size="9">Payroll</text>
  </g>

  <!-- Payroll Form Illustration -->
  <g transform="translate(60, 210)">
    <rect x="0" y="0" width="520" height="200" rx="16" fill="#fff" fill-opacity="0.06" stroke="#fff" stroke-opacity="0.1"/>
    <text x="20" y="30" fill="#fbbf24" font-size="14" font-weight="700">&#x1F4B0; Payroll Input</text>

    <!-- Header row -->
    <rect x="15" y="45" width="490" height="28" rx="6" fill="#fff" fill-opacity="0.05"/>
    <text x="30" y="64" fill="#93c5fd" font-size="10" font-weight="600">Partner</text>
    <text x="180" y="64" fill="#93c5fd" font-size="10" font-weight="600">Hourly Rate</text>
    <text x="310" y="64" fill="#93c5fd" font-size="10" font-weight="600">Hours</text>
    <text x="420" y="64" fill="#93c5fd" font-size="10" font-weight="600">Total</text>

    <!-- Row 1 -->
    <text x="30" y="95" fill="#fff" font-size="11">&#x1F451; Kim Leader</text>
    <rect x="170" y="80" width="90" height="24" rx="6" fill="#fff" fill-opacity="0.08" stroke="#fbbf24" stroke-opacity="0.3"/>
    <text x="215" y="97" text-anchor="middle" fill="#fde68a" font-size="11">&#xA5;15,000</text>
    <text x="285" y="95" fill="#fff" font-size="12">&#xD7;</text>
    <rect x="300" y="80" width="60" height="24" rx="6" fill="#fff" fill-opacity="0.08" stroke="#34d399" stroke-opacity="0.3"/>
    <text x="330" y="97" text-anchor="middle" fill="#6ee7b7" font-size="11">8h</text>
    <text x="380" y="95" fill="#fff" font-size="12">=</text>
    <text x="420" y="96" fill="#fbbf24" font-size="12" font-weight="700">&#xA5;120,000</text>

    <!-- Row 2 -->
    <text x="30" y="130" fill="#fff" font-size="11">&#x1F464; Park Member</text>
    <rect x="170" y="115" width="90" height="24" rx="6" fill="#fff" fill-opacity="0.08" stroke="#fbbf24" stroke-opacity="0.3"/>
    <text x="215" y="132" text-anchor="middle" fill="#fde68a" font-size="11">&#xA5;13,000</text>
    <text x="285" y="130" fill="#fff" font-size="12">&#xD7;</text>
    <rect x="300" y="115" width="60" height="24" rx="6" fill="#fff" fill-opacity="0.08" stroke="#34d399" stroke-opacity="0.3"/>
    <text x="330" y="132" text-anchor="middle" fill="#6ee7b7" font-size="11">6h</text>
    <text x="380" y="130" fill="#fff" font-size="12">=</text>
    <text x="420" y="131" fill="#fbbf24" font-size="12" font-weight="700">&#xA5;78,000</text>

    <!-- Row 3 -->
    <text x="30" y="165" fill="#fff" font-size="11">&#x1F464; Lee Member</text>
    <rect x="170" y="150" width="90" height="24" rx="6" fill="#fff" fill-opacity="0.08" stroke="#fbbf24" stroke-opacity="0.3"/>
    <text x="215" y="167" text-anchor="middle" fill="#fde68a" font-size="11">&#xA5;13,000</text>
    <text x="285" y="165" fill="#fff" font-size="12">&#xD7;</text>
    <rect x="300" y="150" width="60" height="24" rx="6" fill="#fff" fill-opacity="0.08" stroke="#34d399" stroke-opacity="0.3"/>
    <text x="330" y="167" text-anchor="middle" fill="#6ee7b7" font-size="11">8h</text>
    <text x="380" y="165" fill="#fff" font-size="12">=</text>
    <text x="420" y="166" fill="#fbbf24" font-size="12" font-weight="700">&#xA5;104,000</text>

    <!-- Total bar -->
    <rect x="15" y="180" width="490" height="2" rx="1" fill="#fbbf24" fill-opacity="0.3"/>
  </g>

  <!-- Dashboard Illustration -->
  <g transform="translate(620, 210)">
    <rect x="0" y="0" width="520" height="200" rx="16" fill="#fff" fill-opacity="0.06" stroke="#fff" stroke-opacity="0.1"/>
    <text x="20" y="30" fill="#818cf8" font-size="14" font-weight="700">&#x1F4CA; Dashboard</text>

    <!-- Stat cards -->
    <rect x="15" y="45" width="115" height="55" rx="10" fill="#3b82f6" fill-opacity="0.15" stroke="#3b82f6" stroke-opacity="0.2"/>
    <text x="72" y="67" text-anchor="middle" fill="#93c5fd" font-size="9">Total Paid</text>
    <text x="72" y="88" text-anchor="middle" fill="#fff" font-size="14" font-weight="800">&#xA5;3.2M</text>

    <rect x="140" y="45" width="115" height="55" rx="10" fill="#10b981" fill-opacity="0.15" stroke="#10b981" stroke-opacity="0.2"/>
    <text x="197" y="67" text-anchor="middle" fill="#6ee7b7" font-size="9">Records</text>
    <text x="197" y="88" text-anchor="middle" fill="#fff" font-size="14" font-weight="800">24</text>

    <rect x="265" y="45" width="115" height="55" rx="10" fill="#f59e0b" fill-opacity="0.15" stroke="#f59e0b" stroke-opacity="0.2"/>
    <text x="322" y="67" text-anchor="middle" fill="#fde68a" font-size="9">Workers</text>
    <text x="322" y="88" text-anchor="middle" fill="#fff" font-size="14" font-weight="800">12</text>

    <rect x="390" y="45" width="115" height="55" rx="10" fill="#8b5cf6" fill-opacity="0.15" stroke="#8b5cf6" stroke-opacity="0.2"/>
    <text x="447" y="67" text-anchor="middle" fill="#c4b5fd" font-size="9">Avg Rate</text>
    <text x="447" y="88" text-anchor="middle" fill="#fff" font-size="14" font-weight="800">&#xA5;14K</text>

    <!-- Bar chart -->
    <g transform="translate(15, 115)">
      <rect x="0" y="40" width="60" height="45" rx="4" fill="#3b82f6" fill-opacity="0.5"/>
      <text x="30" y="95" text-anchor="middle" fill="#93c5fd" font-size="8">Kim</text>
      <rect x="70" y="25" width="60" height="60" rx="4" fill="#3b82f6" fill-opacity="0.6"/>
      <text x="100" y="95" text-anchor="middle" fill="#93c5fd" font-size="8">Park</text>
      <rect x="140" y="50" width="60" height="35" rx="4" fill="#3b82f6" fill-opacity="0.4"/>
      <text x="170" y="95" text-anchor="middle" fill="#93c5fd" font-size="8">Lee</text>
      <rect x="210" y="15" width="60" height="70" rx="4" fill="#fbbf24" fill-opacity="0.6"/>
      <text x="240" y="95" text-anchor="middle" fill="#fde68a" font-size="8">Choi</text>
      <rect x="280" y="35" width="60" height="50" rx="4" fill="#3b82f6" fill-opacity="0.45"/>
      <text x="310" y="95" text-anchor="middle" fill="#93c5fd" font-size="8">Jung</text>
      <rect x="350" y="55" width="60" height="30" rx="4" fill="#3b82f6" fill-opacity="0.35"/>
      <text x="380" y="95" text-anchor="middle" fill="#93c5fd" font-size="8">Han</text>
      <rect x="420" y="45" width="60" height="40" rx="4" fill="#3b82f6" fill-opacity="0.4"/>
      <text x="450" y="95" text-anchor="middle" fill="#93c5fd" font-size="8">Yoo</text>
    </g>
  </g>

  <!-- Title -->
  <text x="60" y="470" fill="#fff" font-size="36" font-weight="800">
    Partners Manager v4
  </text>
  <text x="60" y="510" fill="#93c5fd" font-size="22" font-weight="600">
    Payroll Management System
  </text>

  <!-- Subtitle -->
  <text x="60" y="550" fill="#a5b4fc" font-size="14">
    Per-Worker Rate x Hours  |  Real-time Calculation  |  Monthly Statistics Dashboard
  </text>

  <!-- Company badge -->
  <g transform="translate(60, 572)">
    <rect x="0" y="0" width="30" height="22" rx="6" fill="#fff" fill-opacity="0.15"/>
    <text x="15" y="16" text-anchor="middle" fill="#fff" font-size="9" font-weight="800">KJ</text>
    <text x="40" y="15" fill="#64748b" font-size="11">KJ Partners  ·  Payroll &amp; Matching Platform</text>
  </g>

  <!-- Tech badges -->
  <g transform="translate(900, 570)">
    <rect x="0" y="0" width="70" height="22" rx="11" fill="#3ecf8e" fill-opacity="0.2" stroke="#3ecf8e" stroke-opacity="0.3"/>
    <text x="35" y="15" text-anchor="middle" fill="#3ecf8e" font-size="9" font-weight="600">Supabase</text>
    <rect x="80" y="0" width="55" height="22" rx="11" fill="#38bdf8" fill-opacity="0.2" stroke="#38bdf8" stroke-opacity="0.3"/>
    <text x="107" y="15" text-anchor="middle" fill="#38bdf8" font-size="9" font-weight="600">Tailwind</text>
    <rect x="145" y="0" width="90" height="22" rx="11" fill="#a78bfa" fill-opacity="0.2" stroke="#a78bfa" stroke-opacity="0.3"/>
    <text x="190" y="15" text-anchor="middle" fill="#a78bfa" font-size="9" font-weight="600">Vanilla JS</text>
  </g>
</svg>
