<svg viewBox="0 0 1200 630" xmlns="http://www.w3.org/2000/svg" font-family="'Segoe UI','Apple SD Gothic Neo','Malgun Gothic',sans-serif">
  <defs>
    <linearGradient id="bg" x1="0%" y1="0%" x2="100%" y2="100%">
      <stop offset="0%" stop-color="#1e3a5f"/>
      <stop offset="50%" stop-color="#2563eb"/>
      <stop offset="100%" stop-color="#1d4ed8"/>
    </linearGradient>
    <linearGradient id="cardGrad" x1="0%" y1="0%" x2="100%" y2="100%">
      <stop offset="0%" stop-color="#ffffff" stop-opacity="0.12"/>
      <stop offset="100%" stop-color="#ffffff" stop-opacity="0.04"/>
    </linearGradient>
  </defs>

  <rect width="1200" height="630" fill="url(#bg)"/>

  <!-- Grid pattern -->
  <g opacity="0.04">
    <line x1="0" y1="80" x2="1200" y2="80" stroke="#fff" stroke-width="1"/>
    <line x1="0" y1="160" x2="1200" y2="160" stroke="#fff" stroke-width="1"/>
    <line x1="0" y1="240" x2="1200" y2="240" stroke="#fff" stroke-width="1"/>
    <line x1="0" y1="320" x2="1200" y2="320" stroke="#fff" stroke-width="1"/>
    <line x1="0" y1="400" x2="1200" y2="400" stroke="#fff" stroke-width="1"/>
    <line x1="100" y1="0" x2="100" y2="630" stroke="#fff" stroke-width="1"/>
    <line x1="200" y1="0" x2="200" y2="630" stroke="#fff" stroke-width="1"/>
    <line x1="300" y1="0" x2="300" y2="630" stroke="#fff" stroke-width="1"/>
    <line x1="400" y1="0" x2="400" y2="630" stroke="#fff" stroke-width="1"/>
    <line x1="500" y1="0" x2="500" y2="630" stroke="#fff" stroke-width="1"/>
    <line x1="600" y1="0" x2="600" y2="630" stroke="#fff" stroke-width="1"/>
    <line x1="700" y1="0" x2="700" y2="630" stroke="#fff" stroke-width="1"/>
    <line x1="800" y1="0" x2="800" y2="630" stroke="#fff" stroke-width="1"/>
    <line x1="900" y1="0" x2="900" y2="630" stroke="#fff" stroke-width="1"/>
    <line x1="1000" y1="0" x2="1000" y2="630" stroke="#fff" stroke-width="1"/>
    <line x1="1100" y1="0" x2="1100" y2="630" stroke="#fff" stroke-width="1"/>
  </g>

  <!-- Phase arrow flow -->
  <!-- Phase 1: Contract -->
  <g transform="translate(80, 80)">
    <rect x="0" y="0" width="160" height="90" rx="14" fill="url(#cardGrad)" stroke="#fff" stroke-opacity="0.2" stroke-width="1.5"/>
    <text x="80" y="32" text-anchor="middle" fill="#fff" font-size="24">🤝</text>
    <text x="80" y="58" text-anchor="middle" fill="#fff" font-size="13" font-weight="700">계약 체결</text>
    <text x="80" y="76" text-anchor="middle" fill="#93c5fd" font-size="10">KJ Partners × NEXT X</text>
  </g>

  <!-- Arrow 1 -->
  <line x1="250" y1="125" x2="300" y2="125" stroke="#60a5fa" stroke-opacity="0.5" stroke-width="2"/>
  <polygon points="300,120 310,125 300,130" fill="#60a5fa" fill-opacity="0.5"/>

  <!-- Phase 2: Prototype -->
  <g transform="translate(320, 80)">
    <rect x="0" y="0" width="160" height="90" rx="14" fill="url(#cardGrad)" stroke="#fff" stroke-opacity="0.2" stroke-width="1.5"/>
    <text x="80" y="32" text-anchor="middle" fill="#fff" font-size="24">⚡</text>
    <text x="80" y="58" text-anchor="middle" fill="#fff" font-size="13" font-weight="700">프로토타입</text>
    <text x="80" y="76" text-anchor="middle" fill="#93c5fd" font-size="10">CRUD + 상태 워크플로우</text>
  </g>

  <!-- Arrow 2 -->
  <line x1="490" y1="125" x2="540" y2="125" stroke="#60a5fa" stroke-opacity="0.5" stroke-width="2"/>
  <polygon points="540,120 550,125 540,130" fill="#60a5fa" fill-opacity="0.5"/>

  <!-- Phase 3: Security -->
  <g transform="translate(560, 80)">
    <rect x="0" y="0" width="160" height="90" rx="14" fill="url(#cardGrad)" stroke="#fff" stroke-opacity="0.2" stroke-width="1.5"/>
    <text x="80" y="32" text-anchor="middle" fill="#fff" font-size="24">🔒</text>
    <text x="80" y="58" text-anchor="middle" fill="#fff" font-size="13" font-weight="700">보안 강화</text>
    <text x="80" y="76" text-anchor="middle" fill="#93c5fd" font-size="10">Auth + RLS Migration</text>
  </g>

  <!-- Arrow 3 -->
  <line x1="730" y1="125" x2="780" y2="125" stroke="#60a5fa" stroke-opacity="0.5" stroke-width="2"/>
  <polygon points="780,120 790,125 780,130" fill="#60a5fa" fill-opacity="0.5"/>

  <!-- Phase 4: Production -->
  <g transform="translate(800, 80)">
    <rect x="0" y="0" width="160" height="90" rx="14" fill="#fff" fill-opacity="0.15" stroke="#60a5fa" stroke-opacity="0.6" stroke-width="2"/>
    <text x="80" y="32" text-anchor="middle" fill="#fff" font-size="24">🚀</text>
    <text x="80" y="58" text-anchor="middle" fill="#fff" font-size="13" font-weight="700">프로덕션 배포</text>
    <text x="80" y="76" text-anchor="middle" fill="#60a5fa" font-size="10">Vercel + 실데이터</text>
  </g>

  <!-- Architecture diagram below -->
  <!-- Login screen mockup -->
  <g transform="translate(80, 210)">
    <rect x="0" y="0" width="280" height="200" rx="16" fill="#fff" fill-opacity="0.08" stroke="#fff" stroke-opacity="0.15" stroke-width="1"/>
    <!-- Title bar -->
    <rect x="0" y="0" width="280" height="35" rx="16" fill="#fff" fill-opacity="0.06"/>
    <rect x="0" y="16" width="280" height="19" fill="#fff" fill-opacity="0.06"/>
    <circle cx="20" cy="17" r="5" fill="#ef4444" fill-opacity="0.5"/>
    <circle cx="38" cy="17" r="5" fill="#eab308" fill-opacity="0.5"/>
    <circle cx="56" cy="17" r="5" fill="#22c55e" fill-opacity="0.5"/>
    <!-- KJ logo -->
    <rect x="115" y="55" width="50" height="35" rx="8" fill="#1d4ed8" fill-opacity="0.8"/>
    <text x="140" y="79" text-anchor="middle" fill="#fff" font-size="15" font-weight="900">KJ</text>
    <!-- Login form -->
    <rect x="50" y="105" width="180" height="25" rx="6" fill="#fff" fill-opacity="0.08" stroke="#fff" stroke-opacity="0.12"/>
    <text x="65" y="122" fill="#fff" fill-opacity="0.3" font-size="10">admin@kjpartners.co.kr</text>
    <rect x="50" y="138" width="180" height="25" rx="6" fill="#fff" fill-opacity="0.08" stroke="#fff" stroke-opacity="0.12"/>
    <text x="65" y="155" fill="#fff" fill-opacity="0.3" font-size="10">••••••••</text>
    <rect x="50" y="172" width="180" height="28" rx="8" fill="#1d4ed8" fill-opacity="0.7"/>
    <text x="140" y="191" text-anchor="middle" fill="#fff" font-size="11" font-weight="700">로그인</text>
  </g>

  <!-- Arrow from login to dashboard -->
  <line x1="370" y1="310" x2="420" y2="310" stroke="#60a5fa" stroke-opacity="0.4" stroke-width="2" stroke-dasharray="6,4"/>
  <polygon points="420,305 430,310 420,315" fill="#60a5fa" fill-opacity="0.4"/>

  <!-- Dashboard mockup -->
  <g transform="translate(440, 210)">
    <rect x="0" y="0" width="340" height="200" rx="16" fill="#fff" fill-opacity="0.08" stroke="#fff" stroke-opacity="0.15" stroke-width="1"/>
    <!-- Title bar -->
    <rect x="0" y="0" width="340" height="35" rx="16" fill="#fff" fill-opacity="0.06"/>
    <rect x="0" y="16" width="340" height="19" fill="#fff" fill-opacity="0.06"/>
    <circle cx="20" cy="17" r="5" fill="#ef4444" fill-opacity="0.5"/>
    <circle cx="38" cy="17" r="5" fill="#eab308" fill-opacity="0.5"/>
    <circle cx="56" cy="17" r="5" fill="#22c55e" fill-opacity="0.5"/>
    <text x="170" y="22" text-anchor="middle" fill="#fff" fill-opacity="0.5" font-size="10">파트너스 매칭 매니저</text>
    <!-- Stats cards -->
    <rect x="15" y="48" width="72" height="42" rx="8" fill="#fff" fill-opacity="0.06" stroke="#fff" stroke-opacity="0.1"/>
    <text x="51" y="64" text-anchor="middle" fill="#fff" fill-opacity="0.4" font-size="8">전체 파트너</text>
    <text x="51" y="82" text-anchor="middle" fill="#fff" font-size="16" font-weight="800">58</text>
    <rect x="95" y="48" width="72" height="42" rx="8" fill="#fff" fill-opacity="0.06" stroke="#fff" stroke-opacity="0.1"/>
    <text x="131" y="64" text-anchor="middle" fill="#22c55e" fill-opacity="0.6" font-size="8">활동중</text>
    <text x="131" y="82" text-anchor="middle" fill="#22c55e" font-size="16" font-weight="800">55</text>
    <rect x="175" y="48" width="72" height="42" rx="8" fill="#fff" fill-opacity="0.06" stroke="#fff" stroke-opacity="0.1"/>
    <text x="211" y="64" text-anchor="middle" fill="#eab308" fill-opacity="0.6" font-size="8">대기 배정</text>
    <text x="211" y="82" text-anchor="middle" fill="#eab308" font-size="16" font-weight="800">3</text>
    <rect x="255" y="48" width="72" height="42" rx="8" fill="#fff" fill-opacity="0.06" stroke="#fff" stroke-opacity="0.1"/>
    <text x="291" y="64" text-anchor="middle" fill="#3b82f6" fill-opacity="0.6" font-size="8">이번달 완료</text>
    <text x="291" y="82" text-anchor="middle" fill="#3b82f6" font-size="16" font-weight="800">12</text>
    <!-- Partner cards -->
    <rect x="15" y="100" width="100" height="55" rx="8" fill="#fff" fill-opacity="0.05" stroke="#fff" stroke-opacity="0.08"/>
    <text x="25" y="118" fill="#fff" fill-opacity="0.7" font-size="11" font-weight="600">강미경</text>
    <text x="25" y="133" fill="#fff" fill-opacity="0.3" font-size="9">제주 · 정리수납</text>
    <rect x="68" y="139" width="40" height="12" rx="6" fill="#22c55e" fill-opacity="0.15"/>
    <text x="88" y="149" text-anchor="middle" fill="#22c55e" font-size="7">활동중</text>
    <rect x="123" y="100" width="100" height="55" rx="8" fill="#fff" fill-opacity="0.05" stroke="#fff" stroke-opacity="0.08"/>
    <text x="133" y="118" fill="#fff" fill-opacity="0.7" font-size="11" font-weight="600">고윤희</text>
    <text x="133" y="133" fill="#fff" fill-opacity="0.3" font-size="9">제주 · 정리수납</text>
    <rect x="176" y="139" width="40" height="12" rx="6" fill="#22c55e" fill-opacity="0.15"/>
    <text x="196" y="149" text-anchor="middle" fill="#22c55e" font-size="7">활동중</text>
    <rect x="231" y="100" width="100" height="55" rx="8" fill="#fff" fill-opacity="0.05" stroke="#fff" stroke-opacity="0.08"/>
    <text x="241" y="118" fill="#fff" fill-opacity="0.7" font-size="11" font-weight="600">김경화</text>
    <text x="241" y="133" fill="#fff" fill-opacity="0.3" font-size="9">제주 · 정리수납</text>
    <rect x="284" y="139" width="40" height="12" rx="6" fill="#22c55e" fill-opacity="0.15"/>
    <text x="304" y="149" text-anchor="middle" fill="#22c55e" font-size="7">활동중</text>
    <!-- More hint -->
    <text x="170" y="183" text-anchor="middle" fill="#fff" fill-opacity="0.2" font-size="9">+ 55 more partners...</text>
  </g>

  <!-- Tech stack badges on right -->
  <g transform="translate(830, 230)">
    <rect x="0" y="0" width="110" height="30" rx="15" fill="#fff" fill-opacity="0.08" stroke="#fff" stroke-opacity="0.15"/>
    <text x="55" y="20" text-anchor="middle" fill="#93c5fd" font-size="11" font-weight="600">Supabase Auth</text>
    <rect x="120" y="0" width="80" height="30" rx="15" fill="#fff" fill-opacity="0.08" stroke="#fff" stroke-opacity="0.15"/>
    <text x="160" y="20" text-anchor="middle" fill="#93c5fd" font-size="11" font-weight="600">RLS v2</text>
    <rect x="0" y="40" width="85" height="30" rx="15" fill="#fff" fill-opacity="0.08" stroke="#fff" stroke-opacity="0.15"/>
    <text x="42" y="60" text-anchor="middle" fill="#93c5fd" font-size="11" font-weight="600">Vite</text>
    <rect x="95" y="40" width="105" height="30" rx="15" fill="#fff" fill-opacity="0.08" stroke="#fff" stroke-opacity="0.15"/>
    <text x="147" y="60" text-anchor="middle" fill="#93c5fd" font-size="11" font-weight="600">Tailwind CSS</text>
    <rect x="0" y="80" width="90" height="30" rx="15" fill="#fff" fill-opacity="0.08" stroke="#fff" stroke-opacity="0.15"/>
    <text x="45" y="100" text-anchor="middle" fill="#93c5fd" font-size="11" font-weight="600">Vercel</text>
    <rect x="100" y="80" width="100" height="30" rx="15" fill="#fff" fill-opacity="0.08" stroke="#fff" stroke-opacity="0.15"/>
    <text x="150" y="100" text-anchor="middle" fill="#93c5fd" font-size="11" font-weight="600">PostgreSQL</text>
    <rect x="0" y="120" width="100" height="30" rx="15" fill="#fff" fill-opacity="0.08" stroke="#fff" stroke-opacity="0.15"/>
    <text x="50" y="140" text-anchor="middle" fill="#93c5fd" font-size="11" font-weight="600">JWT 인증</text>
    <rect x="110" y="120" width="90" height="30" rx="15" fill="#fff" fill-opacity="0.08" stroke="#fff" stroke-opacity="0.15"/>
    <text x="155" y="140" text-anchor="middle" fill="#93c5fd" font-size="11" font-weight="600">58 Partners</text>
  </g>

  <!-- Title text -->
  <text x="60" y="490" fill="#fff" font-size="34" font-weight="800" letter-spacing="-0.5">계약부터 납품까지</text>
  <text x="60" y="530" fill="#fff" fill-opacity="0.7" font-size="18">파트너스 매칭 매니저 — 프로토타입에서 프로덕션으로</text>
  <text x="60" y="570" fill="#93c5fd" font-size="14">NEXT X AX Solution · KJ Partners</text>
</svg>
