<svg viewBox="0 0 1200 630" xmlns="http://www.w3.org/2000/svg" font-family="'Segoe UI','Apple SD Gothic Neo','Malgun Gothic',sans-serif">
  <defs>
    <linearGradient id="bg" x1="0%" y1="0%" x2="100%" y2="100%">
      <stop offset="0%" stop-color="#1e3a5f"/>
      <stop offset="50%" stop-color="#1d4ed8"/>
      <stop offset="100%" stop-color="#7c3aed"/>
    </linearGradient>
    <linearGradient id="cardGrad" x1="0%" y1="0%" x2="100%" y2="100%">
      <stop offset="0%" stop-color="#ffffff" stop-opacity="0.12"/>
      <stop offset="100%" stop-color="#ffffff" stop-opacity="0.04"/>
    </linearGradient>
  </defs>

  <rect width="1200" height="630" fill="url(#bg)"/>

  <!-- Grid pattern -->
  <g opacity="0.04">
    <line x1="0" y1="80" x2="1200" y2="80" stroke="#fff" stroke-width="1"/>
    <line x1="0" y1="160" x2="1200" y2="160" stroke="#fff" stroke-width="1"/>
    <line x1="0" y1="240" x2="1200" y2="240" stroke="#fff" stroke-width="1"/>
    <line x1="0" y1="320" x2="1200" y2="320" stroke="#fff" stroke-width="1"/>
    <line x1="0" y1="400" x2="1200" y2="400" stroke="#fff" stroke-width="1"/>
    <line x1="100" y1="0" x2="100" y2="630" stroke="#fff" stroke-width="1"/>
    <line x1="200" y1="0" x2="200" y2="630" stroke="#fff" stroke-width="1"/>
    <line x1="300" y1="0" x2="300" y2="630" stroke="#fff" stroke-width="1"/>
    <line x1="400" y1="0" x2="400" y2="630" stroke="#fff" stroke-width="1"/>
    <line x1="500" y1="0" x2="500" y2="630" stroke="#fff" stroke-width="1"/>
    <line x1="600" y1="0" x2="600" y2="630" stroke="#fff" stroke-width="1"/>
    <line x1="700" y1="0" x2="700" y2="630" stroke="#fff" stroke-width="1"/>
    <line x1="800" y1="0" x2="800" y2="630" stroke="#fff" stroke-width="1"/>
    <line x1="900" y1="0" x2="900" y2="630" stroke="#fff" stroke-width="1"/>
    <line x1="1000" y1="0" x2="1000" y2="630" stroke="#fff" stroke-width="1"/>
    <line x1="1100" y1="0" x2="1100" y2="630" stroke="#fff" stroke-width="1"/>
  </g>

  <!-- Version badge -->
  <g transform="translate(60, 50)">
    <rect x="0" y="0" width="55" height="28" rx="14" fill="#7c3aed" fill-opacity="0.4" stroke="#a78bfa" stroke-opacity="0.5"/>
    <text x="27" y="19" text-anchor="middle" fill="#c4b5fd" font-size="12" font-weight="700">v3</text>
  </g>

  <!-- Phase flow: v2 → Schema → Team UI → Calendar → v3 -->
  <g transform="translate(80, 95)">
    <rect x="0" y="0" width="150" height="80" rx="14" fill="url(#cardGrad)" stroke="#fff" stroke-opacity="0.15" stroke-width="1"/>
    <text x="75" y="30" text-anchor="middle" fill="#fff" font-size="20">🗄️</text>
    <text x="75" y="52" text-anchor="middle" fill="#fff" font-size="12" font-weight="700">v2 Production</text>
    <text x="75" y="68" text-anchor="middle" fill="#93c5fd" font-size="9">1:1 단일 배정</text>
  </g>

  <line x1="240" y1="135" x2="275" y2="135" stroke="#a78bfa" stroke-opacity="0.5" stroke-width="2"/>
  <polygon points="275,130 285,135 275,140" fill="#a78bfa" fill-opacity="0.5"/>

  <g transform="translate(295, 95)">
    <rect x="0" y="0" width="165" height="80" rx="14" fill="url(#cardGrad)" stroke="#a78bfa" stroke-opacity="0.3" stroke-width="1.5"/>
    <text x="82" y="30" text-anchor="middle" fill="#fff" font-size="20">🔧</text>
    <text x="82" y="52" text-anchor="middle" fill="#fff" font-size="12" font-weight="700">Schema Migration</text>
    <text x="82" y="68" text-anchor="middle" fill="#c4b5fd" font-size="9">leader_id + member_ids[]</text>
  </g>

  <line x1="470" y1="135" x2="505" y2="135" stroke="#a78bfa" stroke-opacity="0.5" stroke-width="2"/>
  <polygon points="505,130 515,135 505,140" fill="#a78bfa" fill-opacity="0.5"/>

  <g transform="translate(525, 95)">
    <rect x="0" y="0" width="150" height="80" rx="14" fill="url(#cardGrad)" stroke="#a78bfa" stroke-opacity="0.3" stroke-width="1.5"/>
    <text x="75" y="30" text-anchor="middle" fill="#fff" font-size="20">👥</text>
    <text x="75" y="52" text-anchor="middle" fill="#fff" font-size="12" font-weight="700">Team UI</text>
    <text x="75" y="68" text-anchor="middle" fill="#c4b5fd" font-size="9">Leader + Members</text>
  </g>

  <line x1="685" y1="135" x2="720" y2="135" stroke="#a78bfa" stroke-opacity="0.5" stroke-width="2"/>
  <polygon points="720,130 730,135 720,140" fill="#a78bfa" fill-opacity="0.5"/>

  <g transform="translate(740, 95)">
    <rect x="0" y="0" width="150" height="80" rx="14" fill="url(#cardGrad)" stroke="#a78bfa" stroke-opacity="0.3" stroke-width="1.5"/>
    <text x="75" y="30" text-anchor="middle" fill="#fff" font-size="20">📅</text>
    <text x="75" y="52" text-anchor="middle" fill="#fff" font-size="12" font-weight="700">Calendar View</text>
    <text x="75" y="68" text-anchor="middle" fill="#c4b5fd" font-size="9">Team Composition</text>
  </g>

  <line x1="900" y1="135" x2="935" y2="135" stroke="#a78bfa" stroke-opacity="0.5" stroke-width="2"/>
  <polygon points="935,130 945,135 935,140" fill="#a78bfa" fill-opacity="0.5"/>

  <g transform="translate(955, 95)">
    <rect x="0" y="0" width="165" height="80" rx="14" fill="#7c3aed" fill-opacity="0.2" stroke="#a78bfa" stroke-opacity="0.6" stroke-width="2"/>
    <text x="82" y="30" text-anchor="middle" fill="#fff" font-size="20">🚀</text>
    <text x="82" y="52" text-anchor="middle" fill="#fff" font-size="12" font-weight="700">v3 Live</text>
    <text x="82" y="68" text-anchor="middle" fill="#a78bfa" font-size="9">1:N Team Assignment</text>
  </g>

  <!-- Before / After comparison -->
  <!-- Before card -->
  <g transform="translate(80, 220)">
    <rect x="0" y="0" width="480" height="180" rx="16" fill="#fff" fill-opacity="0.06" stroke="#fff" stroke-opacity="0.1"/>
    <text x="20" y="28" fill="#ef4444" fill-opacity="0.7" font-size="12" font-weight="700">BEFORE (v2) — 1:1 단일 배정</text>
    <!-- Assignment card mockup -->
    <rect x="20" y="40" width="440" height="125" rx="10" fill="#fff" fill-opacity="0.05" stroke="#fff" stroke-opacity="0.08"/>
    <text x="35" y="64" fill="#fff" fill-opacity="0.8" font-size="13" font-weight="600">홍길동 고객</text>
    <rect x="150" y="50" width="42" height="18" rx="9" fill="#fbbf24" fill-opacity="0.15"/>
    <text x="171" y="63" text-anchor="middle" fill="#fbbf24" font-size="9" font-weight="600">대기</text>
    <text x="35" y="84" fill="#fff" fill-opacity="0.4" font-size="10">제주시 연동 123</text>
    <text x="35" y="100" fill="#fff" fill-opacity="0.4" font-size="10">2026-07-18</text>
    <text x="35" y="120" fill="#93c5fd" fill-opacity="0.8" font-size="11" font-weight="600">담당: 강미경</text>
    <!-- Only one person indicator -->
    <rect x="35" y="135" width="60" height="16" rx="4" fill="#ef4444" fill-opacity="0.1"/>
    <text x="65" y="146" text-anchor="middle" fill="#ef4444" fill-opacity="0.6" font-size="8">1명만 배정</text>
  </g>

  <!-- Arrow between cards -->
  <g transform="translate(578, 300)">
    <text x="0" y="0" fill="#a78bfa" font-size="28">→</text>
  </g>

  <!-- After card -->
  <g transform="translate(640, 220)">
    <rect x="0" y="0" width="480" height="180" rx="16" fill="#fff" fill-opacity="0.06" stroke="#a78bfa" stroke-opacity="0.25"/>
    <text x="20" y="28" fill="#22c55e" fill-opacity="0.9" font-size="12" font-weight="700">AFTER (v3) — 1:N 팀 배정</text>
    <!-- Assignment card mockup -->
    <rect x="20" y="40" width="440" height="125" rx="10" fill="#fff" fill-opacity="0.05" stroke="#a78bfa" stroke-opacity="0.12"/>
    <text x="35" y="64" fill="#fff" fill-opacity="0.8" font-size="13" font-weight="600">홍길동 고객</text>
    <rect x="150" y="50" width="42" height="18" rx="9" fill="#fbbf24" fill-opacity="0.15"/>
    <text x="171" y="63" text-anchor="middle" fill="#fbbf24" font-size="9" font-weight="600">대기</text>
    <rect x="200" y="50" width="36" height="18" rx="9" fill="#fff" fill-opacity="0.08"/>
    <text x="218" y="63" text-anchor="middle" fill="#fff" fill-opacity="0.5" font-size="9">3명</text>
    <text x="35" y="84" fill="#fff" fill-opacity="0.4" font-size="10">제주시 연동 123</text>
    <text x="35" y="100" fill="#fff" fill-opacity="0.4" font-size="10">2026-07-18</text>
    <text x="35" y="120" fill="#93c5fd" fill-opacity="0.9" font-size="11" font-weight="600">👑 팀장: 강미경</text>
    <text x="35" y="138" fill="#a78bfa" fill-opacity="0.8" font-size="11">👥 팀원: 김경숙1, 박지연</text>
    <!-- Team indicator -->
    <rect x="380" y="115" width="65" height="38" rx="8" fill="#22c55e" fill-opacity="0.08" stroke="#22c55e" stroke-opacity="0.2"/>
    <text x="412" y="133" text-anchor="middle" fill="#22c55e" fill-opacity="0.7" font-size="8" font-weight="600">TEAM</text>
    <text x="412" y="147" text-anchor="middle" fill="#22c55e" fill-opacity="0.5" font-size="8">1+N</text>
  </g>

  <!-- Tech badges -->
  <g transform="translate(80, 430)">
    <rect x="0" y="0" width="100" height="26" rx="13" fill="#fff" fill-opacity="0.08" stroke="#fff" stroke-opacity="0.12"/>
    <text x="50" y="17" text-anchor="middle" fill="#93c5fd" font-size="10" font-weight="600">PostgreSQL</text>
    <rect x="110" y="0" width="80" height="26" rx="13" fill="#fff" fill-opacity="0.08" stroke="#fff" stroke-opacity="0.12"/>
    <text x="150" y="17" text-anchor="middle" fill="#93c5fd" font-size="10" font-weight="600">UUID[]</text>
    <rect x="200" y="0" width="115" height="26" rx="13" fill="#fff" fill-opacity="0.08" stroke="#fff" stroke-opacity="0.12"/>
    <text x="257" y="17" text-anchor="middle" fill="#93c5fd" font-size="10" font-weight="600">PostgREST Alias</text>
    <rect x="325" y="0" width="80" height="26" rx="13" fill="#fff" fill-opacity="0.08" stroke="#fff" stroke-opacity="0.12"/>
    <text x="365" y="17" text-anchor="middle" fill="#93c5fd" font-size="10" font-weight="600">Vanilla JS</text>
    <rect x="415" y="0" width="68" height="26" rx="13" fill="#fff" fill-opacity="0.08" stroke="#fff" stroke-opacity="0.12"/>
    <text x="449" y="17" text-anchor="middle" fill="#93c5fd" font-size="10" font-weight="600">Vercel</text>
  </g>

  <!-- Title -->
  <text x="60" y="505" fill="#fff" font-size="34" font-weight="800" letter-spacing="-0.5">파트너스 매칭 매니저 v3</text>
  <text x="60" y="545" fill="#fff" fill-opacity="0.7" font-size="18">팀 배정 시스템 — 팀장 + 팀원 다중 배정 체계</text>
  <text x="60" y="580" fill="#c4b5fd" font-size="14">NEXT X AX Solution · KJ Partners · Series #5</text>
</svg>
