<svg xmlns="http://www.w3.org/2000/svg" viewBox="0 0 1200 630" width="1200" height="630" font-family="'Apple SD Gothic Neo','Malgun Gothic','Noto Sans KR','Segoe UI',sans-serif">
  <defs>
    <linearGradient id="bg" x1="0" y1="0" x2="1" y2="1"><stop offset="0" stop-color="#0b1030"/><stop offset="0.5" stop-color="#1a1548"/><stop offset="1" stop-color="#241550"/></linearGradient>
    <radialGradient id="glow" cx="82%" cy="10%" r="72%"><stop offset="0" stop-color="#7c3aed" stop-opacity="0.5"/><stop offset="1" stop-color="#7c3aed" stop-opacity="0"/></radialGradient>
    <pattern id="dots" width="34" height="34" patternUnits="userSpaceOnUse"><circle cx="2" cy="2" r="1.6" fill="#fff" opacity="0.06"/></pattern>
    <linearGradient id="ac" x1="0" y1="0" x2="1" y2="0"><stop offset="0" stop-color="#8ab4ff"/><stop offset="1" stop-color="#c4b5fd"/></linearGradient>
  </defs>
  <rect width="1200" height="630" fill="url(#bg)"/><rect width="1200" height="630" fill="url(#dots)"/><rect width="1200" height="630" fill="url(#glow)"/>
  <g transform="translate(80,90)"><rect width="230" height="48" rx="24" fill="#7c3aed" opacity="0.22"/><text x="115" y="32" text-anchor="middle" font-size="23" font-weight="700" fill="#c4b5fd">🤖 AI Transformation · 심화</text></g>
  <text x="80" y="262" font-size="60" font-weight="800" fill="#fff">사내 지식 검색 챗봇</text>
  <text x="80" y="342" font-size="46" font-weight="700" fill="url(#ac)">'우리 회사를 아는 AI' 만들기</text>
  <text x="80" y="410" font-size="30" font-weight="500" fill="#aab0d6">RAG 구축 실전 가이드</text>
  <g transform="translate(80,456)" font-size="22" font-weight="700">
    <g><rect width="120" height="52" rx="12" fill="#fff" opacity="0.08"/><text x="60" y="34" text-anchor="middle" fill="#e8eaff">문서</text></g>
    <text x="128" y="34" fill="#8ab4ff" font-size="26">→</text>
    <g transform="translate(158,0)"><rect width="120" height="52" rx="12" fill="#fff" opacity="0.08"/><text x="60" y="34" text-anchor="middle" fill="#e8eaff">임베딩</text></g>
    <text x="286" y="34" fill="#8ab4ff" font-size="26">→</text>
    <g transform="translate(316,0)"><rect width="120" height="52" rx="12" fill="#fff" opacity="0.08"/><text x="60" y="34" text-anchor="middle" fill="#e8eaff">검색</text></g>
    <text x="444" y="34" fill="#8ab4ff" font-size="26">→</text>
    <g transform="translate(474,0)"><rect width="120" height="52" rx="12" fill="#7c3aed" opacity="0.2"/><text x="60" y="34" text-anchor="middle" fill="#c4b5fd">답변</text></g>
  </g>
  <text x="1120" y="560" text-anchor="end" font-size="30" font-weight="800" fill="#fff" opacity="0.85">NEXT X</text>
</svg>
