<svg xmlns="http://www.w3.org/2000/svg" viewBox="0 0 1200 630" width="1200" height="630" font-family="'Apple SD Gothic Neo','Malgun Gothic','Noto Sans KR','Segoe UI',sans-serif">
  <defs>
    <linearGradient id="bg" x1="0" y1="0" x2="1" y2="1"><stop offset="0" stop-color="#06202b"/><stop offset="0.5" stop-color="#0a2236"/><stop offset="1" stop-color="#101a3a"/></linearGradient>
    <radialGradient id="glow" cx="82%" cy="10%" r="72%"><stop offset="0" stop-color="#38bdf8" stop-opacity="0.45"/><stop offset="1" stop-color="#38bdf8" stop-opacity="0"/></radialGradient>
    <pattern id="dots" width="34" height="34" patternUnits="userSpaceOnUse"><circle cx="2" cy="2" r="1.6" fill="#fff" opacity="0.06"/></pattern>
    <linearGradient id="ac" x1="0" y1="0" x2="1" y2="0"><stop offset="0" stop-color="#7dd3fc"/><stop offset="1" stop-color="#a5b4fc"/></linearGradient>
  </defs>
  <rect width="1200" height="630" fill="url(#bg)"/><rect width="1200" height="630" fill="url(#dots)"/><rect width="1200" height="630" fill="url(#glow)"/>
  <g transform="translate(80,90)"><rect width="216" height="48" rx="24" fill="#22d3ee" opacity="0.18"/><text x="108" y="32" text-anchor="middle" font-size="23" font-weight="700" fill="#7fe7f5">📊 Data Engineering · 심화</text></g>
  <text x="80" y="262" font-size="60" font-weight="800" fill="#fff">경영진 대시보드 설계</text>
  <text x="80" y="336" font-size="42" font-weight="700" fill="url(#ac)">무엇을, 어떻게 보여줄까</text>
  <text x="80" y="404" font-size="30" font-weight="500" fill="#aab0d6">보는 사람이 결정하게 만드는 지표</text>
  <g transform="translate(80,456)" font-size="22" font-weight="700">
    <g><rect width="110" height="52" rx="12" fill="#fff" opacity="0.08"/><text x="55" y="34" text-anchor="middle" fill="#e8eaff">KPI</text></g>
    <g transform="translate(126,0)"><rect width="130" height="52" rx="12" fill="#fff" opacity="0.08"/><text x="65" y="34" text-anchor="middle" fill="#e8eaff">북극성</text></g>
    <g transform="translate(272,0)"><rect width="150" height="52" rx="12" fill="#fff" opacity="0.08"/><text x="75" y="34" text-anchor="middle" fill="#e8eaff">드릴다운</text></g>
  </g>
  <text x="1120" y="560" text-anchor="end" font-size="30" font-weight="800" fill="#fff" opacity="0.85">NEXT X</text>
</svg>
