<svg viewBox="0 0 1200 630" xmlns="http://www.w3.org/2000/svg" font-family="'Segoe UI','Apple SD Gothic Neo','Malgun Gothic',sans-serif">
  <defs>
    <linearGradient id="bg" x1="0%" y1="0%" x2="100%" y2="100%">
      <stop offset="0%" stop-color="#0f766e"/>
      <stop offset="100%" stop-color="#0e7490"/>
    </linearGradient>
    <linearGradient id="cylGrad" x1="0%" y1="0%" x2="100%" y2="100%">
      <stop offset="0%" stop-color="#ffffff" stop-opacity="0.18"/>
      <stop offset="100%" stop-color="#ffffff" stop-opacity="0.06"/>
    </linearGradient>
  </defs>

  <!-- Background -->
  <rect width="1200" height="630" fill="url(#bg)"/>

  <!-- Grid dots -->
  <g opacity="0.08">
    <circle cx="40" cy="40" r="2" fill="#fff"/><circle cx="120" cy="40" r="2" fill="#fff"/><circle cx="200" cy="40" r="2" fill="#fff"/><circle cx="280" cy="40" r="2" fill="#fff"/><circle cx="360" cy="40" r="2" fill="#fff"/><circle cx="440" cy="40" r="2" fill="#fff"/><circle cx="520" cy="40" r="2" fill="#fff"/><circle cx="600" cy="40" r="2" fill="#fff"/><circle cx="680" cy="40" r="2" fill="#fff"/><circle cx="760" cy="40" r="2" fill="#fff"/><circle cx="840" cy="40" r="2" fill="#fff"/><circle cx="920" cy="40" r="2" fill="#fff"/><circle cx="1000" cy="40" r="2" fill="#fff"/><circle cx="1080" cy="40" r="2" fill="#fff"/><circle cx="1160" cy="40" r="2" fill="#fff"/>
    <circle cx="40" cy="120" r="2" fill="#fff"/><circle cx="120" cy="120" r="2" fill="#fff"/><circle cx="200" cy="120" r="2" fill="#fff"/><circle cx="280" cy="120" r="2" fill="#fff"/><circle cx="360" cy="120" r="2" fill="#fff"/><circle cx="440" cy="120" r="2" fill="#fff"/><circle cx="520" cy="120" r="2" fill="#fff"/><circle cx="600" cy="120" r="2" fill="#fff"/><circle cx="680" cy="120" r="2" fill="#fff"/><circle cx="760" cy="120" r="2" fill="#fff"/><circle cx="840" cy="120" r="2" fill="#fff"/><circle cx="920" cy="120" r="2" fill="#fff"/><circle cx="1000" cy="120" r="2" fill="#fff"/><circle cx="1080" cy="120" r="2" fill="#fff"/><circle cx="1160" cy="120" r="2" fill="#fff"/>
    <circle cx="40" cy="200" r="2" fill="#fff"/><circle cx="120" cy="200" r="2" fill="#fff"/><circle cx="200" cy="200" r="2" fill="#fff"/><circle cx="280" cy="200" r="2" fill="#fff"/><circle cx="360" cy="200" r="2" fill="#fff"/><circle cx="440" cy="200" r="2" fill="#fff"/><circle cx="520" cy="200" r="2" fill="#fff"/><circle cx="600" cy="200" r="2" fill="#fff"/><circle cx="680" cy="200" r="2" fill="#fff"/><circle cx="760" cy="200" r="2" fill="#fff"/><circle cx="840" cy="200" r="2" fill="#fff"/><circle cx="920" cy="200" r="2" fill="#fff"/><circle cx="1000" cy="200" r="2" fill="#fff"/><circle cx="1080" cy="200" r="2" fill="#fff"/><circle cx="1160" cy="200" r="2" fill="#fff"/>
    <circle cx="40" cy="280" r="2" fill="#fff"/><circle cx="120" cy="280" r="2" fill="#fff"/><circle cx="200" cy="280" r="2" fill="#fff"/><circle cx="280" cy="280" r="2" fill="#fff"/><circle cx="360" cy="280" r="2" fill="#fff"/><circle cx="440" cy="280" r="2" fill="#fff"/><circle cx="520" cy="280" r="2" fill="#fff"/><circle cx="600" cy="280" r="2" fill="#fff"/><circle cx="680" cy="280" r="2" fill="#fff"/><circle cx="760" cy="280" r="2" fill="#fff"/><circle cx="840" cy="280" r="2" fill="#fff"/><circle cx="920" cy="280" r="2" fill="#fff"/><circle cx="1000" cy="280" r="2" fill="#fff"/><circle cx="1080" cy="280" r="2" fill="#fff"/><circle cx="1160" cy="280" r="2" fill="#fff"/>
    <circle cx="40" cy="360" r="2" fill="#fff"/><circle cx="120" cy="360" r="2" fill="#fff"/><circle cx="200" cy="360" r="2" fill="#fff"/><circle cx="280" cy="360" r="2" fill="#fff"/><circle cx="360" cy="360" r="2" fill="#fff"/><circle cx="440" cy="360" r="2" fill="#fff"/><circle cx="520" cy="360" r="2" fill="#fff"/><circle cx="600" cy="360" r="2" fill="#fff"/><circle cx="680" cy="360" r="2" fill="#fff"/><circle cx="760" cy="360" r="2" fill="#fff"/><circle cx="840" cy="360" r="2" fill="#fff"/><circle cx="920" cy="360" r="2" fill="#fff"/><circle cx="1000" cy="360" r="2" fill="#fff"/><circle cx="1080" cy="360" r="2" fill="#fff"/><circle cx="1160" cy="360" r="2" fill="#fff"/>
    <circle cx="40" cy="440" r="2" fill="#fff"/><circle cx="120" cy="440" r="2" fill="#fff"/><circle cx="200" cy="440" r="2" fill="#fff"/><circle cx="280" cy="440" r="2" fill="#fff"/><circle cx="360" cy="440" r="2" fill="#fff"/><circle cx="440" cy="440" r="2" fill="#fff"/><circle cx="520" cy="440" r="2" fill="#fff"/><circle cx="600" cy="440" r="2" fill="#fff"/><circle cx="680" cy="440" r="2" fill="#fff"/><circle cx="760" cy="440" r="2" fill="#fff"/><circle cx="840" cy="440" r="2" fill="#fff"/><circle cx="920" cy="440" r="2" fill="#fff"/><circle cx="1000" cy="440" r="2" fill="#fff"/><circle cx="1080" cy="440" r="2" fill="#fff"/><circle cx="1160" cy="440" r="2" fill="#fff"/>
  </g>

  <!-- DB Cylinder 1 (large, center-left) -->
  <g transform="translate(180, 100)">
    <ellipse cx="120" cy="0" rx="120" ry="30" fill="url(#cylGrad)" stroke="#fff" stroke-opacity="0.3" stroke-width="1.5"/>
    <rect x="0" y="0" width="240" height="200" fill="url(#cylGrad)"/>
    <line x1="0" y1="0" x2="0" y2="200" stroke="#fff" stroke-opacity="0.3" stroke-width="1.5"/>
    <line x1="240" y1="0" x2="240" y2="200" stroke="#fff" stroke-opacity="0.3" stroke-width="1.5"/>
    <ellipse cx="120" cy="200" rx="120" ry="30" fill="url(#cylGrad)" stroke="#fff" stroke-opacity="0.3" stroke-width="1.5"/>
    <!-- Inner lines (data rows) -->
    <ellipse cx="120" cy="65" rx="110" ry="20" fill="none" stroke="#fff" stroke-opacity="0.12" stroke-width="1"/>
    <ellipse cx="120" cy="130" rx="110" ry="20" fill="none" stroke="#fff" stroke-opacity="0.12" stroke-width="1"/>
    <!-- Label -->
    <text x="120" y="105" text-anchor="middle" fill="#fff" font-size="22" font-weight="700">DATABASE</text>
    <text x="120" y="170" text-anchor="middle" fill="#fff" fill-opacity="0.5" font-size="13">Tables / Indexes / Views</text>
  </g>

  <!-- DB Cylinder 2 (small, top-right) -->
  <g transform="translate(720, 60)">
    <ellipse cx="60" cy="0" rx="60" ry="15" fill="url(#cylGrad)" stroke="#fff" stroke-opacity="0.2" stroke-width="1"/>
    <rect x="0" y="0" width="120" height="80" fill="url(#cylGrad)"/>
    <line x1="0" y1="0" x2="0" y2="80" stroke="#fff" stroke-opacity="0.2" stroke-width="1"/>
    <line x1="120" y1="0" x2="120" y2="80" stroke="#fff" stroke-opacity="0.2" stroke-width="1"/>
    <ellipse cx="60" cy="80" rx="60" ry="15" fill="url(#cylGrad)" stroke="#fff" stroke-opacity="0.2" stroke-width="1"/>
    <text x="60" y="48" text-anchor="middle" fill="#fff" fill-opacity="0.7" font-size="12" font-weight="600">Backup</text>
  </g>

  <!-- DB Cylinder 3 (small, middle-right) -->
  <g transform="translate(900, 120)">
    <ellipse cx="60" cy="0" rx="60" ry="15" fill="url(#cylGrad)" stroke="#fff" stroke-opacity="0.2" stroke-width="1"/>
    <rect x="0" y="0" width="120" height="80" fill="url(#cylGrad)"/>
    <line x1="0" y1="0" x2="0" y2="80" stroke="#fff" stroke-opacity="0.2" stroke-width="1"/>
    <line x1="120" y1="0" x2="120" y2="80" stroke="#fff" stroke-opacity="0.2" stroke-width="1"/>
    <ellipse cx="60" cy="80" rx="60" ry="15" fill="url(#cylGrad)" stroke="#fff" stroke-opacity="0.2" stroke-width="1"/>
    <text x="60" y="48" text-anchor="middle" fill="#fff" fill-opacity="0.7" font-size="12" font-weight="600">Replica</text>
  </g>

  <!-- DBA person icon -->
  <g transform="translate(680, 240)">
    <circle cx="60" cy="20" r="28" fill="#fff" fill-opacity="0.12" stroke="#fff" stroke-opacity="0.3" stroke-width="1.5"/>
    <text x="60" y="28" text-anchor="middle" fill="#fff" font-size="24">👤</text>
    <rect x="10" y="55" width="100" height="50" rx="12" fill="#fff" fill-opacity="0.12" stroke="#fff" stroke-opacity="0.3" stroke-width="1.5"/>
    <text x="60" y="85" text-anchor="middle" fill="#fff" font-size="15" font-weight="700">DBA</text>
  </g>

  <!-- Connecting lines: DBA to DBs -->
  <line x1="420" y1="200" x2="680" y2="275" stroke="#fff" stroke-opacity="0.2" stroke-width="1.5" stroke-dasharray="6,4"/>
  <line x1="740" y1="240" x2="780" y2="140" stroke="#fff" stroke-opacity="0.2" stroke-width="1.5" stroke-dasharray="6,4"/>
  <line x1="740" y1="260" x2="900" y2="180" stroke="#fff" stroke-opacity="0.2" stroke-width="1.5" stroke-dasharray="6,4"/>

  <!-- DBA role tags -->
  <g transform="translate(850, 270)">
    <rect x="0" y="0" width="110" height="30" rx="15" fill="#fff" fill-opacity="0.1" stroke="#fff" stroke-opacity="0.2"/>
    <text x="55" y="20" text-anchor="middle" fill="#5eead4" font-size="11" font-weight="600">Performance</text>
    <rect x="120" y="0" width="90" height="30" rx="15" fill="#fff" fill-opacity="0.1" stroke="#fff" stroke-opacity="0.2"/>
    <text x="165" y="20" text-anchor="middle" fill="#5eead4" font-size="11" font-weight="600">Security</text>
    <rect x="0" y="40" width="95" height="30" rx="15" fill="#fff" fill-opacity="0.1" stroke="#fff" stroke-opacity="0.2"/>
    <text x="47" y="60" text-anchor="middle" fill="#5eead4" font-size="11" font-weight="600">Backup</text>
    <rect x="105" y="40" width="105" height="30" rx="15" fill="#fff" fill-opacity="0.1" stroke="#fff" stroke-opacity="0.2"/>
    <text x="157" y="60" text-anchor="middle" fill="#5eead4" font-size="11" font-weight="600">Migration</text>
  </g>

  <!-- App icons connecting to main DB -->
  <g transform="translate(60, 380)">
    <rect x="0" y="0" width="80" height="50" rx="10" fill="#fff" fill-opacity="0.08" stroke="#fff" stroke-opacity="0.15"/>
    <text x="40" y="32" text-anchor="middle" fill="#fff" fill-opacity="0.6" font-size="11">Web App</text>
    <rect x="100" y="0" width="80" height="50" rx="10" fill="#fff" fill-opacity="0.08" stroke="#fff" stroke-opacity="0.15"/>
    <text x="140" y="32" text-anchor="middle" fill="#fff" fill-opacity="0.6" font-size="11">Mobile</text>
    <rect x="200" y="0" width="80" height="50" rx="10" fill="#fff" fill-opacity="0.08" stroke="#fff" stroke-opacity="0.15"/>
    <text x="240" y="32" text-anchor="middle" fill="#fff" fill-opacity="0.6" font-size="11">API</text>
  </g>
  <!-- Arrows from apps to DB -->
  <line x1="100" y1="380" x2="220" y2="330" stroke="#fff" stroke-opacity="0.15" stroke-width="1"/>
  <line x1="160" y1="380" x2="270" y2="330" stroke="#fff" stroke-opacity="0.15" stroke-width="1"/>
  <line x1="260" y1="380" x2="330" y2="330" stroke="#fff" stroke-opacity="0.15" stroke-width="1"/>

  <!-- Title text -->
  <text x="60" y="510" fill="#fff" font-size="34" font-weight="800" letter-spacing="-0.5">DB와 DBA의 역할</text>
  <text x="60" y="550" fill="#fff" fill-opacity="0.7" font-size="18">데이터베이스의 구조부터 DBA가 하는 일까지</text>
  <text x="60" y="585" fill="#5eead4" font-size="14">NEXT X Data Solution · Data Engineering</text>
</svg>
