<svg viewBox="0 0 1200 630" xmlns="http://www.w3.org/2000/svg" font-family="'Segoe UI','Apple SD Gothic Neo','Malgun Gothic',sans-serif">
  <defs>
    <linearGradient id="bg" x1="0%" y1="0%" x2="100%" y2="100%">
      <stop offset="0%" style="stop-color:#0f172a"/>
      <stop offset="50%" style="stop-color:#1e293b"/>
      <stop offset="100%" style="stop-color:#6366f1"/>
    </linearGradient>
  </defs>
  <rect width="1200" height="630" fill="url(#bg)"/>
  <g opacity="0.05"><rect x="60" y="60" width="1080" height="510" rx="20" stroke="#fff" stroke-width="1" fill="none"/></g>
  <text x="600" y="240" text-anchor="middle" fill="#fff" font-size="44" font-weight="800" letter-spacing="-0.5">데이터 웨어하우스 vs 데이터 레이크</text>
  <text x="600" y="290" text-anchor="middle" fill="rgba(255,255,255,0.5)" font-size="17">구조화된 창고와 원시 호수 — 우리 조직에 맞는 저장소는?</text>
  <g transform="translate(360,340)">
    <rect x="0" y="0" width="140" height="44" rx="22" fill="rgba(255,255,255,0.07)" stroke="#818cf8" stroke-width="1" stroke-opacity="0.4"/><text x="70" y="28" text-anchor="middle" fill="#818cf8" font-size="13" font-weight="600">Warehouse</text>
    <rect x="170" y="0" width="140" height="44" rx="22" fill="rgba(255,255,255,0.07)" stroke="#818cf8" stroke-width="1" stroke-opacity="0.4"/><text x="240" y="28" text-anchor="middle" fill="#818cf8" font-size="13" font-weight="600">Lakehouse</text>
    <rect x="340" y="0" width="140" height="44" rx="22" fill="rgba(255,255,255,0.07)" stroke="#818cf8" stroke-width="1" stroke-opacity="0.4"/><text x="410" y="28" text-anchor="middle" fill="#818cf8" font-size="13" font-weight="600">Lake</text>
  </g>
  
  <text x="600" y="550" text-anchor="middle" fill="rgba(255,255,255,0.2)" font-size="13">NEXT X R&amp;D · Data Engineering</text>
  <rect x="400" y="570" width="80" height="22" rx="11" fill="rgba(255,255,255,0.05)"/><text x="440" y="585" text-anchor="middle" fill="rgba(255,255,255,0.3)" font-size="9">Data</text>
  <rect x="490" y="570" width="100" height="22" rx="11" fill="rgba(255,255,255,0.05)"/><text x="540" y="585" text-anchor="middle" fill="rgba(255,255,255,0.3)" font-size="9">Engineering</text>
  <rect x="600" y="570" width="90" height="22" rx="11" fill="rgba(255,255,255,0.05)"/><text x="645" y="585" text-anchor="middle" fill="rgba(255,255,255,0.3)" font-size="9">Pipeline</text>
  <rect x="700" y="570" width="90" height="22" rx="11" fill="rgba(255,255,255,0.05)"/><text x="745" y="585" text-anchor="middle" fill="rgba(255,255,255,0.3)" font-size="9">Analytics</text>
</svg>