<svg xmlns="http://www.w3.org/2000/svg" viewBox="0 0 1200 630" width="1200" height="630" font-family="'Apple SD Gothic Neo','Malgun Gothic','Noto Sans KR','Segoe UI',sans-serif">
  <defs>
    <linearGradient id="bg" x1="0" y1="0" x2="1" y2="1"><stop offset="0" stop-color="#06202b"/><stop offset="0.5" stop-color="#0a2236"/><stop offset="1" stop-color="#101a3a"/></linearGradient>
    <radialGradient id="glow" cx="82%" cy="10%" r="72%"><stop offset="0" stop-color="#22d3ee" stop-opacity="0.45"/><stop offset="1" stop-color="#22d3ee" stop-opacity="0"/></radialGradient>
    <pattern id="dots" width="34" height="34" patternUnits="userSpaceOnUse"><circle cx="2" cy="2" r="1.6" fill="#fff" opacity="0.06"/></pattern>
    <linearGradient id="ac" x1="0" y1="0" x2="1" y2="0"><stop offset="0" stop-color="#67e8f9"/><stop offset="1" stop-color="#8ab4ff"/></linearGradient>
  </defs>
  <rect width="1200" height="630" fill="url(#bg)"/><rect width="1200" height="630" fill="url(#dots)"/><rect width="1200" height="630" fill="url(#glow)"/>
  <g transform="translate(80,88)"><rect width="216" height="48" rx="24" fill="#22d3ee" opacity="0.18"/><text x="108" y="32" text-anchor="middle" font-size="23" font-weight="700" fill="#7fe7f5">📊 Data Engineering</text></g>
  <text x="80" y="250" font-size="70" font-weight="800" fill="#fff">구글시트로</text>
  <text x="80" y="332" font-size="60" font-weight="800" fill="url(#ac)">경영 대시보드</text>
  <text x="80" y="402" font-size="30" font-weight="500" fill="#aab0d6">코딩 없이 '살아있는 지표' 만들기</text>
  <g transform="translate(80,456)" font-size="22" font-weight="700">
    <g><rect width="120" height="52" rx="12" fill="#fff" opacity="0.08"/><text x="60" y="34" text-anchor="middle" fill="#e8eaff">취합</text></g>
    <text x="128" y="34" fill="#67e8f9" font-size="26">→</text>
    <g transform="translate(158,0)"><rect width="120" height="52" rx="12" fill="#fff" opacity="0.08"/><text x="60" y="34" text-anchor="middle" fill="#e8eaff">함수</text></g>
    <text x="286" y="34" fill="#67e8f9" font-size="26">→</text>
    <g transform="translate(316,0)"><rect width="120" height="52" rx="12" fill="#fff" opacity="0.08"/><text x="60" y="34" text-anchor="middle" fill="#e8eaff">차트</text></g>
    <text x="444" y="34" fill="#67e8f9" font-size="26">→</text>
    <g transform="translate(474,0)"><rect width="160" height="52" rx="12" fill="#22d3ee" opacity="0.16"/><text x="80" y="34" text-anchor="middle" fill="#7fe7f5">자동 갱신</text></g>
  </g>
  <text x="1120" y="560" text-anchor="end" font-size="30" font-weight="800" fill="#fff" opacity="0.85">NEXT X</text>
</svg>
