<svg xmlns="http://www.w3.org/2000/svg" viewBox="0 0 1200 630" width="1200" height="630" font-family="'Apple SD Gothic Neo','Malgun Gothic','Noto Sans KR','Segoe UI',sans-serif">
  <defs>
    <linearGradient id="bg" x1="0" y1="0" x2="1" y2="1"><stop offset="0" stop-color="#0d1326"/><stop offset="0.5" stop-color="#161d3a"/><stop offset="1" stop-color="#1e1a44"/></linearGradient>
    <radialGradient id="glow" cx="80%" cy="10%" r="72%"><stop offset="0" stop-color="#6366f1" stop-opacity="0.5"/><stop offset="1" stop-color="#6366f1" stop-opacity="0"/></radialGradient>
    <pattern id="dots" width="34" height="34" patternUnits="userSpaceOnUse"><circle cx="2" cy="2" r="1.6" fill="#fff" opacity="0.06"/></pattern>
    <linearGradient id="ac" x1="0" y1="0" x2="1" y2="0"><stop offset="0" stop-color="#a5b4fc"/><stop offset="1" stop-color="#7dd3fc"/></linearGradient>
  </defs>
  <rect width="1200" height="630" fill="url(#bg)"/>
  <rect width="1200" height="630" fill="url(#dots)"/>
  <rect width="1200" height="630" fill="url(#glow)"/>

  <!-- Mini grid illustration -->
  <g transform="translate(890,80)" opacity="0.4">
    <rect x="-12" y="-12" width="244" height="244" rx="14" fill="#fdf6ec" opacity="0.5"/>
    <g>
      <rect x="0" y="0" width="48" height="48" rx="8" fill="#fff" opacity="0.7"/>
      <text x="24" y="34" text-anchor="middle" font-size="26">🐱</text>
      <rect x="56" y="0" width="48" height="48" rx="8" fill="#fff" opacity="0.7"/>
      <text x="80" y="34" text-anchor="middle" font-size="26">🐶</text>
      <rect x="112" y="0" width="48" height="48" rx="8" fill="#fff" opacity="0.7"/>
      <text x="136" y="34" text-anchor="middle" font-size="26">🐰</text>
      <rect x="168" y="0" width="48" height="48" rx="8" fill="#fff" opacity="0.7"/>
      <text x="192" y="34" text-anchor="middle" font-size="26">🦊</text>

      <rect x="0" y="56" width="48" height="48" rx="8" fill="#fff" opacity="0.7"/>
      <text x="24" y="90" text-anchor="middle" font-size="26">🐻</text>
      <rect x="56" y="56" width="48" height="48" rx="8" fill="#ff8fab" opacity="0.5"/>
      <text x="80" y="90" text-anchor="middle" font-size="26">🦊</text>
      <rect x="112" y="56" width="48" height="48" rx="8" fill="#ff8fab" opacity="0.5"/>
      <text x="136" y="90" text-anchor="middle" font-size="26">🦊</text>
      <rect x="168" y="56" width="48" height="48" rx="8" fill="#ff8fab" opacity="0.5"/>
      <text x="192" y="90" text-anchor="middle" font-size="26">🦊</text>

      <rect x="0" y="112" width="48" height="48" rx="8" fill="#fff" opacity="0.7"/>
      <text x="24" y="146" text-anchor="middle" font-size="26">🐰</text>
      <rect x="56" y="112" width="48" height="48" rx="8" fill="#fff" opacity="0.7"/>
      <text x="80" y="146" text-anchor="middle" font-size="26">🐱</text>
      <rect x="112" y="112" width="48" height="48" rx="8" fill="#fff" opacity="0.7"/>
      <text x="136" y="146" text-anchor="middle" font-size="26">🐶</text>
      <rect x="168" y="112" width="48" height="48" rx="8" fill="#fff" opacity="0.7"/>
      <text x="192" y="146" text-anchor="middle" font-size="26">🐻</text>

      <rect x="0" y="168" width="48" height="48" rx="8" fill="#fff" opacity="0.7"/>
      <text x="24" y="202" text-anchor="middle" font-size="26">🐶</text>
      <rect x="56" y="168" width="48" height="48" rx="8" fill="#fff" opacity="0.7"/>
      <text x="80" y="202" text-anchor="middle" font-size="26">🐻</text>
      <rect x="112" y="168" width="48" height="48" rx="8" fill="#fff" opacity="0.7"/>
      <text x="136" y="202" text-anchor="middle" font-size="26">🐱</text>
      <rect x="168" y="168" width="48" height="48" rx="8" fill="#fff" opacity="0.7"/>
      <text x="192" y="202" text-anchor="middle" font-size="26">🐰</text>
    </g>
    <!-- POP indicator -->
    <text x="240" y="88" font-size="20" fill="#ff8fab" font-weight="700" opacity="0.9">POP!</text>
  </g>

  <g transform="translate(80,90)"><rect width="190" height="48" rx="24" fill="#6366f1" opacity="0.22"/><text x="95" y="32" text-anchor="middle" font-size="23" font-weight="700" fill="#c7d2fe">🛠️ Dev &amp; DevOps</text></g>
  <text x="80" y="248" font-size="62" font-weight="800" fill="#fff">이모지가 쏟아진다</text>
  <text x="80" y="335" font-size="48" font-weight="800" fill="url(#ac)">3매치 퍼즐의 연쇄 알고리즘</text>
  <text x="80" y="405" font-size="28" font-weight="500" fill="#aab0d6">중력 낙하 · 연쇄 콤보 · 비동기 애니메이션 체인</text>

  <g transform="translate(80,458)" font-size="22" font-weight="700">
    <g><rect width="110" height="50" rx="12" fill="#fff" opacity="0.08"/><text x="55" y="33" text-anchor="middle" fill="#e8eaff">매치 판정</text></g>
    <text x="118" y="33" fill="#7dd3fc" font-size="24">→</text>
    <g transform="translate(136,0)"><rect width="120" height="50" rx="12" fill="#fff" opacity="0.08"/><text x="60" y="33" text-anchor="middle" fill="#e8eaff">중력 낙하</text></g>
    <text x="264" y="33" fill="#7dd3fc" font-size="24">→</text>
    <g transform="translate(282,0)"><rect width="120" height="50" rx="12" fill="#6366f1" opacity="0.25"/><text x="60" y="33" text-anchor="middle" fill="#e0e7ff">연쇄 콤보</text></g>
    <g transform="translate(420,0)"><rect width="100" height="50" rx="12" fill="#ff8fab" opacity="0.2"/><text x="50" y="33" text-anchor="middle" fill="#ffb3c6">협업</text></g>
  </g>

  <text x="1120" y="560" text-anchor="end" font-size="30" font-weight="800" fill="#fff" opacity="0.85">NEXT X</text>
</svg>
