<svg xmlns="http://www.w3.org/2000/svg" viewBox="0 0 1200 630" width="1200" height="630" font-family="'Apple SD Gothic Neo','Malgun Gothic','Noto Sans KR','Segoe UI',sans-serif">
  <defs>
    <linearGradient id="bg" x1="0" y1="0" x2="1" y2="1"><stop offset="0" stop-color="#0d1326"/><stop offset="0.5" stop-color="#161d3a"/><stop offset="1" stop-color="#1e1a44"/></linearGradient>
    <radialGradient id="glow" cx="80%" cy="10%" r="72%"><stop offset="0" stop-color="#6366f1" stop-opacity="0.5"/><stop offset="1" stop-color="#6366f1" stop-opacity="0"/></radialGradient>
    <pattern id="dots" width="34" height="34" patternUnits="userSpaceOnUse"><circle cx="2" cy="2" r="1.6" fill="#fff" opacity="0.06"/></pattern>
    <linearGradient id="ac" x1="0" y1="0" x2="1" y2="0"><stop offset="0" stop-color="#a5b4fc"/><stop offset="1" stop-color="#7dd3fc"/></linearGradient>
  </defs>
  <rect width="1200" height="630" fill="url(#bg)"/><rect width="1200" height="630" fill="url(#dots)"/><rect width="1200" height="630" fill="url(#glow)"/>
  <g transform="translate(80,90)"><rect width="190" height="48" rx="24" fill="#6366f1" opacity="0.22"/><text x="95" y="32" text-anchor="middle" font-size="23" font-weight="700" fill="#c7d2fe">🛠️ Dev &amp; DevOps</text></g>
  <text x="80" y="258" font-size="60" font-weight="800" fill="#fff">터미널·셸·커널·프롬프트</text>
  <text x="80" y="336" font-size="40" font-weight="600" fill="url(#ac)">헷갈리는 4가지 완벽 정리</text>
  <g transform="translate(80,392)" font-size="24" font-weight="700">
    <rect width="132" height="52" rx="10" fill="#334155" opacity="0.6"/><text x="66" y="34" text-anchor="middle" fill="#e2e8f0">터미널</text>
    <text x="140" y="34" fill="#7dd3fc" font-size="26">▶</text>
    <rect x="168" width="110" height="52" rx="10" fill="#3b3f66" opacity="0.6"/><text x="223" y="34" text-anchor="middle" fill="#e2e8f0">셸</text>
    <text x="290" y="34" fill="#7dd3fc" font-size="26">▶</text>
    <rect x="318" width="110" height="52" rx="10" fill="#4338ca" opacity="0.55"/><text x="373" y="34" text-anchor="middle" fill="#e0e7ff">커널</text>
    <text x="440" y="34" fill="#7dd3fc" font-size="26">▶</text>
    <rect x="468" width="150" height="52" rx="10" fill="#312e6b" opacity="0.6"/><text x="543" y="34" text-anchor="middle" fill="#e0e7ff">하드웨어</text>
  </g>
  <text x="80" y="512" font-size="24" font-weight="500" fill="#7f88b3">에러가 어느 층위 문제인지 바로 아는 디버깅 지도 · R&amp;D 실전 일지</text>
  <text x="1120" y="560" text-anchor="end" font-size="30" font-weight="800" fill="#fff" opacity="0.85">NEXT X</text>
</svg>
