<svg xmlns="http://www.w3.org/2000/svg" viewBox="0 0 1200 630" width="1200" height="630" font-family="'Apple SD Gothic Neo','Malgun Gothic','Noto Sans KR','Segoe UI',sans-serif">
  <defs>
    <linearGradient id="bg" x1="0" y1="0" x2="1" y2="1"><stop offset="0" stop-color="#0d1326"/><stop offset="0.5" stop-color="#161d3a"/><stop offset="1" stop-color="#1e1a44"/></linearGradient>
    <radialGradient id="glow" cx="80%" cy="10%" r="72%"><stop offset="0" stop-color="#6366f1" stop-opacity="0.5"/><stop offset="1" stop-color="#6366f1" stop-opacity="0"/></radialGradient>
    <pattern id="dots" width="34" height="34" patternUnits="userSpaceOnUse"><circle cx="2" cy="2" r="1.6" fill="#fff" opacity="0.06"/></pattern>
    <linearGradient id="ac" x1="0" y1="0" x2="1" y2="0"><stop offset="0" stop-color="#a5b4fc"/><stop offset="1" stop-color="#7dd3fc"/></linearGradient>
  </defs>
  <rect width="1200" height="630" fill="url(#bg)"/><rect width="1200" height="630" fill="url(#dots)"/><rect width="1200" height="630" fill="url(#glow)"/>
  <g transform="translate(80,90)"><rect width="190" height="48" rx="24" fill="#6366f1" opacity="0.22"/><text x="95" y="32" text-anchor="middle" font-size="23" font-weight="700" fill="#c7d2fe">🛠️ Dev &amp; DevOps</text></g>
  <text x="80" y="256" font-size="70" font-weight="800" fill="#fff">윈도우에서</text>
  <text x="80" y="338" font-size="58" font-weight="800" fill="url(#ac)">Claude Code 설치</text>
  <text x="80" y="408" font-size="30" font-weight="500" fill="#aab0d6">완전 가이드 — 설치부터 첫 실행까지</text>
  <g transform="translate(80,460)" font-size="23" font-weight="700">
    <g><rect width="130" height="52" rx="12" fill="#fff" opacity="0.08"/><text x="65" y="34" text-anchor="middle" fill="#e8eaff">Node.js</text></g>
    <g transform="translate(146,0)"><rect width="120" height="52" rx="12" fill="#fff" opacity="0.08"/><text x="60" y="34" text-anchor="middle" fill="#e8eaff">설치</text></g>
    <g transform="translate(282,0)"><rect width="120" height="52" rx="12" fill="#fff" opacity="0.08"/><text x="60" y="34" text-anchor="middle" fill="#e8eaff">PATH</text></g>
    <g transform="translate(418,0)"><rect width="120" height="52" rx="12" fill="#fff" opacity="0.08"/><text x="60" y="34" text-anchor="middle" fill="#e8eaff">검증</text></g>
  </g>
  <text x="1120" y="560" text-anchor="end" font-size="30" font-weight="800" fill="#fff" opacity="0.85">NEXT X</text>
</svg>
