<svg viewBox="0 0 1200 630" xmlns="http://www.w3.org/2000/svg" font-family="'Segoe UI','Apple SD Gothic Neo','Malgun Gothic',sans-serif">
  <defs>
    <linearGradient id="bg" x1="0%" y1="0%" x2="100%" y2="100%">
      <stop offset="0%" style="stop-color:#0f172a"/>
      <stop offset="40%" style="stop-color:#1e293b"/>
      <stop offset="100%" style="stop-color:#7c3aed"/>
    </linearGradient>
    <linearGradient id="card" x1="0%" y1="0%" x2="0%" y2="100%">
      <stop offset="0%" style="stop-color:#ffffff;stop-opacity:0.1"/>
      <stop offset="100%" style="stop-color:#ffffff;stop-opacity:0.03"/>
    </linearGradient>
    <linearGradient id="accent" x1="0%" y1="0%" x2="100%" y2="0%">
      <stop offset="0%" style="stop-color:#6366f1"/>
      <stop offset="100%" style="stop-color:#a78bfa"/>
    </linearGradient>
    <linearGradient id="orange" x1="0%" y1="0%" x2="100%" y2="0%">
      <stop offset="0%" style="stop-color:#f97316"/>
      <stop offset="100%" style="stop-color:#fb923c"/>
    </linearGradient>
    <linearGradient id="cyan" x1="0%" y1="0%" x2="100%" y2="0%">
      <stop offset="0%" style="stop-color:#06b6d4"/>
      <stop offset="100%" style="stop-color:#67e8f9"/>
    </linearGradient>
    <linearGradient id="green" x1="0%" y1="0%" x2="100%" y2="0%">
      <stop offset="0%" style="stop-color:#10b981"/>
      <stop offset="100%" style="stop-color:#6ee7b7"/>
    </linearGradient>
  </defs>

  <!-- Background -->
  <rect width="1200" height="630" fill="url(#bg)"/>

  <!-- Grid dots -->
  <g opacity="0.08">
    <circle cx="40" cy="40" r="1.5" fill="#fff"/><circle cx="80" cy="40" r="1.5" fill="#fff"/>
    <circle cx="120" cy="40" r="1.5" fill="#fff"/><circle cx="160" cy="40" r="1.5" fill="#fff"/>
    <circle cx="40" cy="80" r="1.5" fill="#fff"/><circle cx="80" cy="80" r="1.5" fill="#fff"/>
    <circle cx="120" cy="80" r="1.5" fill="#fff"/><circle cx="160" cy="80" r="1.5" fill="#fff"/>
    <circle cx="1040" cy="540" r="1.5" fill="#fff"/><circle cx="1080" cy="540" r="1.5" fill="#fff"/>
    <circle cx="1120" cy="540" r="1.5" fill="#fff"/><circle cx="1160" cy="540" r="1.5" fill="#fff"/>
    <circle cx="1040" cy="580" r="1.5" fill="#fff"/><circle cx="1080" cy="580" r="1.5" fill="#fff"/>
    <circle cx="1120" cy="580" r="1.5" fill="#fff"/><circle cx="1160" cy="580" r="1.5" fill="#fff"/>
  </g>

  <!-- Title -->
  <text x="600" y="80" text-anchor="middle" fill="#ffffff" font-size="40" font-weight="800" letter-spacing="-0.5">프론트엔드 개발자의 세계</text>
  <text x="600" y="120" text-anchor="middle" fill="rgba(255,255,255,0.5)" font-size="18">"사용자가 만지는 모든 것"을 만드는 사람들</text>

  <!-- Browser mockup (center) -->
  <rect x="340" y="160" width="520" height="320" rx="12" fill="#1a1a2e" stroke="rgba(255,255,255,0.1)" stroke-width="1.5"/>
  <rect x="340" y="160" width="520" height="32" rx="12" fill="#252540"/>
  <rect x="340" y="180" width="520" height="12" fill="#252540"/>
  <circle cx="362" cy="176" r="5" fill="#ff5f56"/>
  <circle cx="380" cy="176" r="5" fill="#ffbd2e"/>
  <circle cx="398" cy="176" r="5" fill="#27c93f"/>
  <rect x="440" y="170" width="300" height="14" rx="7" fill="rgba(255,255,255,0.06)"/>
  <text x="590" y="181" text-anchor="middle" fill="rgba(255,255,255,0.3)" font-size="8">https://my-awesome-app.com</text>

  <!-- Inside browser: layout mockup -->
  <!-- Nav bar -->
  <rect x="360" y="205" width="480" height="30" rx="4" fill="rgba(99,102,241,0.2)"/>
  <rect x="372" y="214" width="50" height="12" rx="3" fill="url(#accent)"/>
  <rect x="706" y="214" width="30" height="12" rx="3" fill="rgba(255,255,255,0.1)"/>
  <rect x="744" y="214" width="30" height="12" rx="3" fill="rgba(255,255,255,0.1)"/>
  <rect x="782" y="214" width="40" height="12" rx="6" fill="url(#accent)"/>

  <!-- Hero section -->
  <rect x="360" y="245" width="480" height="80" rx="4" fill="rgba(255,255,255,0.03)"/>
  <rect x="385" y="262" width="200" height="14" rx="3" fill="rgba(255,255,255,0.15)"/>
  <rect x="385" y="282" width="140" height="8" rx="2" fill="rgba(255,255,255,0.06)"/>
  <rect x="385" y="296" width="80" height="18" rx="9" fill="url(#accent)" opacity="0.7"/>

  <!-- Cards row -->
  <rect x="360" y="335" width="150" height="100" rx="6" fill="rgba(255,255,255,0.04)" stroke="rgba(255,255,255,0.06)" stroke-width="1"/>
  <rect x="375" y="350" width="40" height="40" rx="8" fill="url(#orange)" opacity="0.3"/>
  <rect x="375" y="400" width="100" height="8" rx="2" fill="rgba(255,255,255,0.1)"/>
  <rect x="375" y="414" width="70" height="6" rx="2" fill="rgba(255,255,255,0.05)"/>

  <rect x="525" y="335" width="150" height="100" rx="6" fill="rgba(255,255,255,0.04)" stroke="rgba(255,255,255,0.06)" stroke-width="1"/>
  <rect x="540" y="350" width="40" height="40" rx="8" fill="url(#cyan)" opacity="0.3"/>
  <rect x="540" y="400" width="100" height="8" rx="2" fill="rgba(255,255,255,0.1)"/>
  <rect x="540" y="414" width="70" height="6" rx="2" fill="rgba(255,255,255,0.05)"/>

  <rect x="690" y="335" width="150" height="100" rx="6" fill="rgba(255,255,255,0.04)" stroke="rgba(255,255,255,0.06)" stroke-width="1"/>
  <rect x="705" y="350" width="40" height="40" rx="8" fill="url(#green)" opacity="0.3"/>
  <rect x="705" y="400" width="100" height="8" rx="2" fill="rgba(255,255,255,0.1)"/>
  <rect x="705" y="414" width="70" height="6" rx="2" fill="rgba(255,255,255,0.05)"/>

  <!-- Footer in browser -->
  <rect x="360" y="448" width="480" height="20" rx="2" fill="rgba(255,255,255,0.02)"/>

  <!-- Left side: skill badges -->
  <rect x="50" y="180" width="260" height="300" rx="16" fill="url(#card)" stroke="rgba(255,255,255,0.06)" stroke-width="1"/>
  <text x="180" y="215" text-anchor="middle" fill="rgba(255,255,255,0.7)" font-size="13" font-weight="700">Core Skills</text>

  <rect x="70" y="232" width="70" height="26" rx="13" fill="rgba(227,100,20,0.2)" stroke="rgba(227,100,20,0.4)" stroke-width="1"/>
  <text x="105" y="249" text-anchor="middle" fill="#fb923c" font-size="10" font-weight="600">HTML</text>

  <rect x="148" y="232" width="60" height="26" rx="13" fill="rgba(56,152,236,0.2)" stroke="rgba(56,152,236,0.4)" stroke-width="1"/>
  <text x="178" y="249" text-anchor="middle" fill="#60a5fa" font-size="10" font-weight="600">CSS</text>

  <rect x="216" y="232" width="75" height="26" rx="13" fill="rgba(250,204,21,0.2)" stroke="rgba(250,204,21,0.4)" stroke-width="1"/>
  <text x="253" y="249" text-anchor="middle" fill="#fbbf24" font-size="10" font-weight="600">JavaScript</text>

  <rect x="70" y="270" width="65" height="26" rx="13" fill="rgba(97,218,251,0.2)" stroke="rgba(97,218,251,0.4)" stroke-width="1"/>
  <text x="102" y="287" text-anchor="middle" fill="#67e8f9" font-size="10" font-weight="600">React</text>

  <rect x="143" y="270" width="55" height="26" rx="13" fill="rgba(66,184,131,0.2)" stroke="rgba(66,184,131,0.4)" stroke-width="1"/>
  <text x="170" y="287" text-anchor="middle" fill="#4ade80" font-size="10" font-weight="600">Vue</text>

  <rect x="206" y="270" width="85" height="26" rx="13" fill="rgba(255,255,255,0.06)" stroke="rgba(255,255,255,0.15)" stroke-width="1"/>
  <text x="248" y="287" text-anchor="middle" fill="rgba(255,255,255,0.5)" font-size="10" font-weight="600">TypeScript</text>

  <rect x="70" y="308" width="95" height="26" rx="13" fill="rgba(255,255,255,0.06)" stroke="rgba(255,255,255,0.15)" stroke-width="1"/>
  <text x="117" y="325" text-anchor="middle" fill="rgba(255,255,255,0.5)" font-size="10" font-weight="600">Responsive</text>

  <rect x="173" y="308" width="105" height="26" rx="13" fill="rgba(255,255,255,0.06)" stroke="rgba(255,255,255,0.15)" stroke-width="1"/>
  <text x="225" y="325" text-anchor="middle" fill="rgba(255,255,255,0.5)" font-size="10" font-weight="600">Accessibility</text>

  <rect x="70" y="346" width="50" height="26" rx="13" fill="rgba(255,255,255,0.06)" stroke="rgba(255,255,255,0.15)" stroke-width="1"/>
  <text x="95" y="363" text-anchor="middle" fill="rgba(255,255,255,0.5)" font-size="10" font-weight="600">Git</text>

  <rect x="128" y="346" width="80" height="26" rx="13" fill="rgba(255,255,255,0.06)" stroke="rgba(255,255,255,0.15)" stroke-width="1"/>
  <text x="168" y="363" text-anchor="middle" fill="rgba(255,255,255,0.5)" font-size="10" font-weight="600">Testing</text>

  <rect x="216" y="346" width="75" height="26" rx="13" fill="rgba(255,255,255,0.06)" stroke="rgba(255,255,255,0.15)" stroke-width="1"/>
  <text x="253" y="363" text-anchor="middle" fill="rgba(255,255,255,0.5)" font-size="10" font-weight="600">Next.js</text>

  <text x="180" y="410" text-anchor="middle" fill="rgba(255,255,255,0.25)" font-size="10">+ Performance · SEO · UX · API</text>
  <text x="180" y="428" text-anchor="middle" fill="rgba(255,255,255,0.25)" font-size="10">+ Design System · State Mgmt</text>
  <text x="180" y="460" text-anchor="middle" fill="rgba(167,139,250,0.6)" font-size="11" font-weight="600">"사용자 경험의 최전선"</text>

  <!-- Right side: role description -->
  <rect x="890" y="180" width="260" height="300" rx="16" fill="url(#card)" stroke="rgba(255,255,255,0.06)" stroke-width="1"/>
  <text x="1020" y="215" text-anchor="middle" fill="rgba(255,255,255,0.7)" font-size="13" font-weight="700">Modern Roles</text>

  <g transform="translate(910, 230)">
    <circle cx="10" cy="10" r="10" fill="url(#accent)" opacity="0.3"/>
    <text x="10" y="14" text-anchor="middle" fill="#a78bfa" font-size="10">1</text>
    <text x="28" y="15" fill="rgba(255,255,255,0.6)" font-size="11">UI 구현 &amp; 인터랙션</text>
  </g>
  <g transform="translate(910, 266)">
    <circle cx="10" cy="10" r="10" fill="url(#orange)" opacity="0.3"/>
    <text x="10" y="14" text-anchor="middle" fill="#fb923c" font-size="10">2</text>
    <text x="28" y="15" fill="rgba(255,255,255,0.6)" font-size="11">상태 관리 &amp; API 연동</text>
  </g>
  <g transform="translate(910, 302)">
    <circle cx="10" cy="10" r="10" fill="url(#cyan)" opacity="0.3"/>
    <text x="10" y="14" text-anchor="middle" fill="#67e8f9" font-size="10">3</text>
    <text x="28" y="15" fill="rgba(255,255,255,0.6)" font-size="11">성능 최적화 &amp; SEO</text>
  </g>
  <g transform="translate(910, 338)">
    <circle cx="10" cy="10" r="10" fill="url(#green)" opacity="0.3"/>
    <text x="10" y="14" text-anchor="middle" fill="#6ee7b7" font-size="10">4</text>
    <text x="28" y="15" fill="rgba(255,255,255,0.6)" font-size="11">접근성 &amp; 반응형</text>
  </g>
  <g transform="translate(910, 374)">
    <circle cx="10" cy="10" r="10" fill="rgba(255,255,255,0.1)"/>
    <text x="10" y="14" text-anchor="middle" fill="rgba(255,255,255,0.5)" font-size="10">5</text>
    <text x="28" y="15" fill="rgba(255,255,255,0.6)" font-size="11">디자인 시스템 구축</text>
  </g>
  <g transform="translate(910, 410)">
    <circle cx="10" cy="10" r="10" fill="rgba(255,255,255,0.1)"/>
    <text x="10" y="14" text-anchor="middle" fill="rgba(255,255,255,0.5)" font-size="10">6</text>
    <text x="28" y="15" fill="rgba(255,255,255,0.6)" font-size="11">테스트 &amp; CI/CD</text>
  </g>

  <text x="1020" y="460" text-anchor="middle" fill="rgba(167,139,250,0.6)" font-size="11" font-weight="600">"기술 + 디자인 + 사용자 심리"</text>

  <!-- Bottom bar -->
  <rect x="60" y="510" width="1080" height="1" fill="rgba(255,255,255,0.06)"/>

  <!-- Bottom labels -->
  <text x="600" y="548" text-anchor="middle" fill="rgba(255,255,255,0.35)" font-size="16" font-weight="600">Frontend = User Interface + User Experience + Engineering</text>

  <!-- Tech badges bottom -->
  <rect x="380" y="570" width="80" height="22" rx="11" fill="rgba(255,255,255,0.06)"/>
  <text x="420" y="585" text-anchor="middle" fill="rgba(255,255,255,0.4)" font-size="9">HTML/CSS/JS</text>
  <rect x="470" y="570" width="60" height="22" rx="11" fill="rgba(255,255,255,0.06)"/>
  <text x="500" y="585" text-anchor="middle" fill="rgba(255,255,255,0.4)" font-size="9">React</text>
  <rect x="540" y="570" width="70" height="22" rx="11" fill="rgba(255,255,255,0.06)"/>
  <text x="575" y="585" text-anchor="middle" fill="rgba(255,255,255,0.4)" font-size="9">TypeScript</text>
  <rect x="620" y="570" width="60" height="22" rx="11" fill="rgba(255,255,255,0.06)"/>
  <text x="650" y="585" text-anchor="middle" fill="rgba(255,255,255,0.4)" font-size="9">Next.js</text>
  <rect x="690" y="570" width="70" height="22" rx="11" fill="rgba(255,255,255,0.06)"/>
  <text x="725" y="585" text-anchor="middle" fill="rgba(255,255,255,0.4)" font-size="9">Tailwind</text>

  <!-- NEXT X -->
  <text x="1140" y="610" text-anchor="end" fill="rgba(255,255,255,0.2)" font-size="11">NEXT X R&amp;D</text>
</svg>