<svg xmlns="http://www.w3.org/2000/svg" viewBox="0 0 1200 630" width="1200" height="630" font-family="'Apple SD Gothic Neo','Malgun Gothic','Noto Sans KR','Segoe UI',sans-serif">
  <defs>
    <linearGradient id="bg" x1="0" y1="0" x2="1" y2="1"><stop offset="0" stop-color="#08202b"/><stop offset="0.5" stop-color="#0e2036"/><stop offset="1" stop-color="#151a3a"/></linearGradient>
    <radialGradient id="glow" cx="82%" cy="10%" r="72%"><stop offset="0" stop-color="#22d3ee" stop-opacity="0.45"/><stop offset="1" stop-color="#22d3ee" stop-opacity="0"/></radialGradient>
    <pattern id="dots" width="34" height="34" patternUnits="userSpaceOnUse"><circle cx="2" cy="2" r="1.6" fill="#fff" opacity="0.06"/></pattern>
    <linearGradient id="ac" x1="0" y1="0" x2="1" y2="0"><stop offset="0" stop-color="#67e8f9"/><stop offset="1" stop-color="#a5b4fc"/></linearGradient>
  </defs>
  <rect width="1200" height="630" fill="url(#bg)"/><rect width="1200" height="630" fill="url(#dots)"/><rect width="1200" height="630" fill="url(#glow)"/>
  <g transform="translate(80,96)"><rect width="216" height="48" rx="24" fill="#22d3ee" opacity="0.16"/><text x="108" y="32" text-anchor="middle" font-size="23" font-weight="700" fill="#7fe7f5">자료실 · 사전</text></g>
  <text x="80" y="278" font-size="76" font-weight="800" fill="#fff">AI 용어 사전</text>
  <text x="80" y="356" font-size="38" font-weight="600" fill="url(#ac)">기획자의 언어로 풀어쓴 핵심 용어</text>
  <g transform="translate(80,430)" font-size="22" font-weight="700">
    <g><rect width="110" height="50" rx="12" fill="#fff" opacity="0.08"/><text x="55" y="33" text-anchor="middle" fill="#e8eaff">LLM</text></g>
    <g transform="translate(126,0)"><rect width="130" height="50" rx="12" fill="#fff" opacity="0.08"/><text x="65" y="33" text-anchor="middle" fill="#e8eaff">토큰</text></g>
    <g transform="translate(272,0)"><rect width="110" height="50" rx="12" fill="#fff" opacity="0.08"/><text x="55" y="33" text-anchor="middle" fill="#e8eaff">RAG</text></g>
    <g transform="translate(398,0)"><rect width="130" height="50" rx="12" fill="#fff" opacity="0.08"/><text x="65" y="33" text-anchor="middle" fill="#e8eaff">환각</text></g>
  </g>
  <text x="1120" y="560" text-anchor="end" font-size="34" font-weight="800" fill="#fff" opacity="0.9">209</text>
</svg>
