<svg xmlns="http://www.w3.org/2000/svg" viewBox="0 0 1200 630" width="1200" height="630" font-family="'Apple SD Gothic Neo','Malgun Gothic','Noto Sans KR','Segoe UI',sans-serif">
  <defs>
    <linearGradient id="bg" x1="0" y1="0" x2="1" y2="1"><stop offset="0" stop-color="#0b1030"/><stop offset="0.5" stop-color="#1a1548"/><stop offset="1" stop-color="#241550"/></linearGradient>
    <radialGradient id="glow" cx="82%" cy="10%" r="72%"><stop offset="0" stop-color="#7c3aed" stop-opacity="0.5"/><stop offset="1" stop-color="#7c3aed" stop-opacity="0"/></radialGradient>
    <pattern id="dots" width="34" height="34" patternUnits="userSpaceOnUse"><circle cx="2" cy="2" r="1.6" fill="#fff" opacity="0.06"/></pattern>
    <linearGradient id="ac" x1="0" y1="0" x2="1" y2="0"><stop offset="0" stop-color="#8ab4ff"/><stop offset="1" stop-color="#c4b5fd"/></linearGradient>
  </defs>
  <rect width="1200" height="630" fill="url(#bg)"/><rect width="1200" height="630" fill="url(#dots)"/><rect width="1200" height="630" fill="url(#glow)"/>
  <g transform="translate(80,90)"><rect width="230" height="48" rx="24" fill="#7c3aed" opacity="0.22"/><text x="115" y="32" text-anchor="middle" font-size="23" font-weight="700" fill="#c4b5fd">🤖 AI Transformation</text></g>
  <text x="80" y="278" font-size="72" font-weight="800" fill="#fff">업종별 AI 활용 지도</text>
  <text x="80" y="356" font-size="38" font-weight="600" fill="url(#ac)">우리 업종은 뭘 자동화할까</text>
  <g transform="translate(80,430)" font-size="23" font-weight="700">
    <g><rect width="110" height="52" rx="12" fill="#fff" opacity="0.08"/><text x="55" y="34" text-anchor="middle" fill="#e8eaff">제조</text></g>
    <g transform="translate(126,0)"><rect width="110" height="52" rx="12" fill="#fff" opacity="0.08"/><text x="55" y="34" text-anchor="middle" fill="#e8eaff">유통</text></g>
    <g transform="translate(252,0)"><rect width="110" height="52" rx="12" fill="#fff" opacity="0.08"/><text x="55" y="34" text-anchor="middle" fill="#e8eaff">서비스</text></g>
    <g transform="translate(378,0)"><rect width="110" height="52" rx="12" fill="#fff" opacity="0.08"/><text x="55" y="34" text-anchor="middle" fill="#e8eaff">병원</text></g>
  </g>
  <text x="1120" y="560" text-anchor="end" font-size="30" font-weight="800" fill="#fff" opacity="0.85">NEXT X</text>
</svg>
