<svg xmlns="http://www.w3.org/2000/svg" viewBox="0 0 1200 630" width="1200" height="630" font-family="'Apple SD Gothic Neo','Malgun Gothic','Noto Sans KR','Segoe UI',sans-serif">
  <defs>
    <linearGradient id="bg" x1="0" y1="0" x2="1" y2="1"><stop offset="0" stop-color="#0b0f1f"/><stop offset="0.5" stop-color="#141a33"/><stop offset="1" stop-color="#0c2233"/></linearGradient>
    <radialGradient id="glow" cx="50%" cy="-8%" r="80%"><stop offset="0" stop-color="#6d5efc" stop-opacity="0.5"/><stop offset="1" stop-color="#6d5efc" stop-opacity="0"/></radialGradient>
    <pattern id="dots" width="34" height="34" patternUnits="userSpaceOnUse"><circle cx="2" cy="2" r="1.6" fill="#fff" opacity="0.06"/></pattern>
    <linearGradient id="ac" x1="0" y1="0" x2="1" y2="0"><stop offset="0" stop-color="#a5b4fc"/><stop offset="0.5" stop-color="#c4b5fd"/><stop offset="1" stop-color="#67e8f9"/></linearGradient>
  </defs>
  <rect width="1200" height="630" fill="url(#bg)"/><rect width="1200" height="630" fill="url(#dots)"/><rect width="1200" height="630" fill="url(#glow)"/>
  <g transform="translate(80,92)"><rect width="176" height="48" rx="24" fill="#a5b4fc" opacity="0.2"/><text x="88" y="32" text-anchor="middle" font-size="23" font-weight="700" fill="#c7d2fe">Inside NEXT X</text></g>
  <text x="80" y="250" font-size="52" font-weight="700" fill="#aab0d6">주식회사 넥스트엑스</text>
  <text x="80" y="336" font-size="82" font-weight="800" fill="url(#ac)">NEXT X</text>
  <text x="80" y="404" font-size="34" font-weight="600" fill="#e8eaff">AX &amp; 업무 자동화 솔루션 연구소</text>
  <g transform="translate(80,456)" font-size="22" font-weight="700">
    <g><rect width="60" height="50" rx="12" fill="#fff" opacity="0.08"/><text x="30" y="33" text-anchor="middle" fill="#e8eaff">🤖</text></g>
    <g transform="translate(72,0)"><rect width="60" height="50" rx="12" fill="#fff" opacity="0.08"/><text x="30" y="33" text-anchor="middle" fill="#e8eaff">⚡</text></g>
    <g transform="translate(144,0)"><rect width="60" height="50" rx="12" fill="#fff" opacity="0.08"/><text x="30" y="33" text-anchor="middle" fill="#e8eaff">📊</text></g>
    <g transform="translate(216,0)"><rect width="60" height="50" rx="12" fill="#fff" opacity="0.08"/><text x="30" y="33" text-anchor="middle" fill="#e8eaff">🛠️</text></g>
  </g>
  <text x="1120" y="560" text-anchor="end" font-size="34" font-weight="800" fill="#fff" opacity="0.9">209</text>
</svg>
