<svg xmlns="http://www.w3.org/2000/svg" viewBox="0 0 1200 630" width="1200" height="630" font-family="'Apple SD Gothic Neo','Malgun Gothic','Noto Sans KR','Segoe UI',sans-serif">
  <defs>
    <linearGradient id="bg" x1="0" y1="0" x2="1" y2="1"><stop offset="0" stop-color="#1a1030"/><stop offset="0.5" stop-color="#241640"/><stop offset="1" stop-color="#2b1a12"/></linearGradient>
    <radialGradient id="glow" cx="80%" cy="10%" r="72%"><stop offset="0" stop-color="#f59e0b" stop-opacity="0.4"/><stop offset="1" stop-color="#f59e0b" stop-opacity="0"/></radialGradient>
    <pattern id="dots" width="34" height="34" patternUnits="userSpaceOnUse"><circle cx="2" cy="2" r="1.6" fill="#fff" opacity="0.06"/></pattern>
    <linearGradient id="ac" x1="0" y1="0" x2="1" y2="0"><stop offset="0" stop-color="#fbbf24"/><stop offset="1" stop-color="#f59e0b"/></linearGradient>
  </defs>
  <rect width="1200" height="630" fill="url(#bg)"/><rect width="1200" height="630" fill="url(#dots)"/><rect width="1200" height="630" fill="url(#glow)"/>
  <g transform="translate(80,92)"><rect width="230" height="48" rx="24" fill="#f59e0b" opacity="0.18"/><text x="115" y="32" text-anchor="middle" font-size="23" font-weight="700" fill="#fbbf24">인사이트 · 커리어</text></g>
  <text x="80" y="268" font-size="76" font-weight="800" fill="#fff">AI 시대, 기획자의</text>
  <text x="80" y="352" font-size="76" font-weight="800" fill="url(#ac)">무기는 무엇인가</text>
  <text x="80" y="416" font-size="34" font-weight="600" fill="#e6c98f">정보 처리자 → 의사결정자</text>
  <g transform="translate(80,458)" font-size="23" font-weight="700">
    <g><rect width="130" height="50" rx="12" fill="#fff" opacity="0.08"/><text x="65" y="33" text-anchor="middle" fill="#e8eaff">전략</text></g>
    <g transform="translate(146,0)"><rect width="160" height="50" rx="12" fill="#fff" opacity="0.08"/><text x="80" y="33" text-anchor="middle" fill="#e8eaff">프롬프트</text></g>
    <g transform="translate(322,0)"><rect width="180" height="50" rx="12" fill="#fff" opacity="0.08"/><text x="90" y="33" text-anchor="middle" fill="#e8eaff">시스템 사고</text></g>
  </g>
  <text x="1120" y="560" text-anchor="end" font-size="34" font-weight="800" fill="#fff" opacity="0.9">209</text>
</svg>
