<svg xmlns="http://www.w3.org/2000/svg" viewBox="0 0 1200 630" width="1200" height="630" font-family="'Apple SD Gothic Neo','Malgun Gothic','Noto Sans KR','Segoe UI',sans-serif">
  <defs>
    <linearGradient id="bg" x1="0" y1="0" x2="1" y2="1"><stop offset="0" stop-color="#0f1030"/><stop offset="0.55" stop-color="#1e1a4d"/><stop offset="1" stop-color="#12243f"/></linearGradient>
    <radialGradient id="glow" cx="82%" cy="12%" r="70%"><stop offset="0" stop-color="#6d5efc" stop-opacity="0.55"/><stop offset="1" stop-color="#6d5efc" stop-opacity="0"/></radialGradient>
    <pattern id="dots" width="34" height="34" patternUnits="userSpaceOnUse"><circle cx="2" cy="2" r="1.6" fill="#fff" opacity="0.06"/></pattern>
    <linearGradient id="ac" x1="0" y1="0" x2="1" y2="0"><stop offset="0" stop-color="#8b9bff"/><stop offset="1" stop-color="#67e8f9"/></linearGradient>
  </defs>
  <rect width="1200" height="630" fill="url(#bg)"/><rect width="1200" height="630" fill="url(#dots)"/><rect width="1200" height="630" fill="url(#glow)"/>
  <g transform="translate(80,96)"><rect width="176" height="48" rx="24" fill="#6d5efc" opacity="0.22"/><text x="88" y="32" text-anchor="middle" font-size="24" font-weight="700" fill="#b6a9ff">수업노트</text></g>
  <text x="80" y="278" font-size="80" font-weight="800" fill="#fff">기획자는 원래</text>
  <text x="80" y="368" font-size="80" font-weight="800" fill="url(#ac)">프롬프트 강자다</text>
  <text x="80" y="430" font-size="34" font-weight="600" fill="#aab0d6">프롬프트 엔지니어링 첫걸음</text>
  <g transform="translate(80,470)" font-size="23" font-weight="700">
    <g><rect width="118" height="50" rx="12" fill="#fff" opacity="0.08"/><text x="59" y="33" text-anchor="middle" fill="#e8eaff">역할</text></g>
    <g transform="translate(134,0)"><rect width="118" height="50" rx="12" fill="#fff" opacity="0.08"/><text x="59" y="33" text-anchor="middle" fill="#e8eaff">맥락</text></g>
    <g transform="translate(268,0)"><rect width="118" height="50" rx="12" fill="#fff" opacity="0.08"/><text x="59" y="33" text-anchor="middle" fill="#e8eaff">예시</text></g>
    <g transform="translate(402,0)"><rect width="118" height="50" rx="12" fill="#fff" opacity="0.08"/><text x="59" y="33" text-anchor="middle" fill="#e8eaff">검증</text></g>
  </g>
  <text x="1120" y="560" text-anchor="end" font-size="34" font-weight="800" fill="#fff" opacity="0.9">209</text>
</svg>
