<svg xmlns="http://www.w3.org/2000/svg" viewBox="0 0 1200 630" width="1200" height="630" font-family="'Apple SD Gothic Neo','Malgun Gothic','Noto Sans KR','Segoe UI',sans-serif">
  <defs>
    <linearGradient id="bg" x1="0" y1="0" x2="1" y2="1"><stop offset="0" stop-color="#12122b"/><stop offset="0.5" stop-color="#241a4d"/><stop offset="1" stop-color="#0c2b3a"/></linearGradient>
    <radialGradient id="glow" cx="50%" cy="-8%" r="80%"><stop offset="0" stop-color="#8b5cf6" stop-opacity="0.5"/><stop offset="1" stop-color="#8b5cf6" stop-opacity="0"/></radialGradient>
    <pattern id="dots" width="34" height="34" patternUnits="userSpaceOnUse"><circle cx="2" cy="2" r="1.6" fill="#fff" opacity="0.06"/></pattern>
    <linearGradient id="ac" x1="0" y1="0" x2="1" y2="0"><stop offset="0" stop-color="#a5b4fc"/><stop offset="0.5" stop-color="#c4b5fd"/><stop offset="1" stop-color="#67e8f9"/></linearGradient>
  </defs>
  <rect width="1200" height="630" fill="url(#bg)"/><rect width="1200" height="630" fill="url(#dots)"/><rect width="1200" height="630" fill="url(#glow)"/>
  <g transform="translate(80,92)"><rect width="150" height="48" rx="24" fill="#a5b4fc" opacity="0.2"/><text x="75" y="32" text-anchor="middle" font-size="23" font-weight="700" fill="#c7d2fe">START HERE</text></g>
  <text x="80" y="270" font-size="82" font-weight="800" fill="#fff">이 블로그 읽는 순서</text>
  <text x="80" y="352" font-size="38" font-weight="600" fill="url(#ac)">AI 에이전트를 처음부터 만들어보고 싶다면</text>
  <g transform="translate(80,432)" font-size="23" font-weight="700">
    <g><rect width="130" height="50" rx="12" fill="#fff" opacity="0.08"/><text x="65" y="33" text-anchor="middle" fill="#e8eaff">배운다</text></g>
    <text x="146" y="33" fill="#8b9bff" font-size="26">→</text>
    <g transform="translate(178,0)"><rect width="130" height="50" rx="12" fill="#fff" opacity="0.08"/><text x="65" y="33" text-anchor="middle" fill="#e8eaff">만든다</text></g>
    <text x="324" y="33" fill="#8b9bff" font-size="26">→</text>
    <g transform="translate(356,0)"><rect width="150" height="50" rx="12" fill="#fff" opacity="0.08"/><text x="75" y="33" text-anchor="middle" fill="#e8eaff">공개한다</text></g>
  </g>
  <text x="1120" y="560" text-anchor="end" font-size="34" font-weight="800" fill="#fff" opacity="0.9">209</text>
</svg>
